<?xml version="1.0" standalone="no"?>
<!DOCTYPE svg PUBLIC "-//W3C//DTD SVG 1.1//EN" "http://www.w3.org/Graphics/SVG/1.1/DTD/svg11.dtd" >
<svg>
<metadata>
Created by FontForge 20120731 at Mon Jul  2 21:49:34 2018
 By www
Keep Calm Book (version 1.2) by Keith Bates (c) 2011 www.k-type.com keith@k-type.com
</metadata>
<defs>
<font id="KeepCalmW01-Book" horiz-adv-x="687" >
  <font-face 
    font-family="KeepCalmW01-Book"
    font-weight="400"
    font-stretch="normal"
    units-per-em="1000"
    panose-1="2 0 0 0 0 0 0 0 0 0"
    ascent="800"
    descent="-200"
    x-height="578"
    cap-height="799"
    bbox="-150 -278 1273 1107"
    underline-thickness="50"
    underline-position="-125"
    unicode-range="U+0009-2122"
  />
<missing-glyph horiz-adv-x="500" 
d="M63 0v800h375v-800h-375zM125 63h250v675h-250v-675z" />
    <glyph glyph-name=".notdef" horiz-adv-x="500" 
d="M63 0v800h375v-800h-375zM125 63h250v675h-250v-675z" />
    <glyph glyph-name="glyph1" horiz-adv-x="0" 
 />
    <glyph glyph-name="glyph1" horiz-adv-x="0" 
 />
    <glyph glyph-name="uni000D" unicode="&#xd;" horiz-adv-x="315" 
 />
    <glyph glyph-name="uni0009" unicode="&#x9;" horiz-adv-x="1000" 
 />
    <glyph glyph-name="uni000A" unicode="&#xa;" horiz-adv-x="1000" 
 />
    <glyph glyph-name="space" unicode=" " horiz-adv-x="315" 
 />
    <glyph glyph-name="exclam" unicode="!" horiz-adv-x="227" 
d="M187 800l-41 -628h-45l-41 628h127zM173 0h-99v99h99v-99z" />
    <glyph glyph-name="quotedbl" unicode="&#x22;" horiz-adv-x="311" 
d="M286 830l-29 -286h-49l-29 286h107zM137 830l-29 -286h-49l-29 286h107z" />
    <glyph glyph-name="numbersign" unicode="#" horiz-adv-x="714" 
d="M674 223h-180l-48 -223h-78l47 223h-190l-47 -223h-80l47 223h-105v77h122l42 200h-164v75h179l48 224h79l-47 -224h191l47 224h77l-46 -224h106v-75h-123l-41 -200h164v-77zM473 500h-190l-43 -200h192z" />
    <glyph glyph-name="dollar" unicode="$" horiz-adv-x="590" 
d="M550 197q0 -38 -17 -74t-47 -65t-71.5 -48t-90.5 -23v-91h-61v91q-69 4 -121 24.5t-100 59.5l72 72q38 -31 71 -45t78 -17v283l-9 3q-44 16 -82.5 36t-68 47.5t-46.5 64t-17 85.5q0 43 17.5 80.5t47.5 66t70.5 46.5t87.5 22v62h61v-62q132 -7 205 -80l-66 -66
q-31 26 -65 39t-74 16v-274l10 -3q115 -38 165.5 -103t50.5 -147zM263 472v250q-23 -4 -45 -13t-39.5 -23t-28 -34t-10.5 -45q0 -51 31.5 -81t91.5 -54zM449 193q0 24 -6.5 44t-21 37t-38.5 33t-59 32v-257q57 8 91 37t34 74z" />
    <glyph glyph-name="percent" unicode="%" horiz-adv-x="824" 
d="M415 629q0 -39 -15 -73.5t-40.5 -60t-59.5 -40t-73 -14.5t-73 14.5t-59.5 40t-40 60t-14.5 73.5t14.5 73t40 59.5t59.5 40t73 14.5t73 -14.5t59.5 -40t40.5 -59.5t15 -73zM707 799l-536 -845h-85l536 845h85zM784 171q0 -39 -15 -73t-40.5 -59.5t-59.5 -40t-73 -14.5
t-73 14.5t-59.5 40t-40 59.5t-14.5 73t14.5 73t40 59.5t59.5 40t73 14.5t73 -14.5t59.5 -40t40.5 -59.5t15 -73zM336 629q0 22 -8.5 41.5t-23.5 34.5t-35 23.5t-42 8.5t-41.5 -8.5t-34.5 -23.5t-23.5 -34.5t-8.5 -41.5q0 -23 8.5 -42.5t23.5 -34t34.5 -23t41.5 -8.5t42 8.5
t35 23t23.5 34t8.5 42.5zM705 171q0 22 -8.5 42t-23.5 34.5t-35 23t-42 8.5t-41.5 -8.5t-34.5 -23t-23.5 -34.5t-8.5 -42q0 -23 8.5 -42.5t23.5 -34t34.5 -23t41.5 -8.5t42 8.5t35 23t23.5 34t8.5 42.5z" />
    <glyph glyph-name="ampersand" unicode="&#x26;" horiz-adv-x="733" 
d="M713 62l-66 -65l-69 79q-29 -24 -53.5 -41t-51 -28t-58.5 -16.5t-76 -5.5q-54 0 -101 18t-82 49.5t-55.5 73.5t-20.5 90q0 57 40 113.5t131 110.5q-31 31 -51 57.5t-32 49.5t-17 42.5t-5 34.5q0 39 16 72.5t45 59t68.5 40t86.5 14.5t87 -14t69.5 -39t46 -59.5t16.5 -75.5
q0 -28 -8.5 -52.5t-29.5 -48.5t-56.5 -50t-89.5 -57l172 -195q12 20 19.5 45.5t9.5 43.5h95q-11 -92 -59 -160zM490 626q0 25 -11 44.5t-28.5 33t-39 20.5t-43.5 7q-24 0 -46.5 -8t-39.5 -22t-27.5 -33.5t-10.5 -42.5q0 -25 11.5 -47t35.5 -48l51 -55q30 14 57 29.5t47 33.5
t32 40t12 48zM513 148l-207 230q-63 -38 -93 -77t-30 -85q0 -29 13 -54t35.5 -43t52.5 -28t63 -10q42 0 81.5 13.5t84.5 53.5z" />
    <glyph glyph-name="quotesingle" unicode="'" horiz-adv-x="152" 
d="M132 830l-29 -286h-49l-29 286h107z" />
    <glyph glyph-name="parenleft" unicode="(" horiz-adv-x="329" 
d="M344 -277h-71q-52 66 -93 129.5t-70 132t-44.5 143.5t-15.5 164q0 88 15.5 162.5t44.5 142.5t70 132t93 132h67q-47 -75 -80.5 -139t-55.5 -129.5t-32 -138.5t-10 -166q0 -160 46 -298.5t136 -266.5z" />
    <glyph glyph-name="parenright" unicode=")" horiz-adv-x="329" 
d="M279 293q0 -86 -15.5 -161.5t-45 -145t-70.5 -134.5t-92 -129h-68q47 75 81 139.5t55.5 130t32 138t10.5 164.5q0 160 -46 299t-136 267h71q50 -63 91 -128t70.5 -134.5t45.5 -145t16 -160.5z" />
    <glyph glyph-name="asterisk" unicode="*" horiz-adv-x="461" 
d="M431 667l-43 -17l-102 -59l97 -58l47 -19l-33 -59l-34 25l-107 62v-118l6 -46h-69l5 44v118l-101 -59l-33 -25l-34 58l30 13l111 64l-104 60l-37 16l34 60l36 -27l98 -58v120l-4 38h67l-5 -40v-120l102 59l38 29z" />
    <glyph glyph-name="plus" unicode="+" horiz-adv-x="682" 
d="M632 325h-233v-245h-105v245h-234v101h234v245h105v-245h233v-101z" />
    <glyph glyph-name="comma" unicode="," horiz-adv-x="199" 
d="M159 0q0 -36 -17.5 -61t-55.5 -25q-17 0 -24 4v8q20 4 31 20t11 36q0 9 -3 18h-41v99h99v-99z" />
    <glyph glyph-name="hyphen" unicode="-" horiz-adv-x="374" 
d="M344 280h-314v94h314v-94z" />
    <glyph glyph-name="period" unicode="." horiz-adv-x="203" 
d="M163 0h-103v103h103v-103z" />
    <glyph glyph-name="slash" unicode="/" horiz-adv-x="271" 
d="M291 871l-231 -928h-80l231 928h80z" />
    <glyph glyph-name="zero" unicode="0" horiz-adv-x="792" 
d="M742 390q0 -77 -24 -150t-68.5 -129.5t-107.5 -91t-141 -34.5t-141 34.5t-107.5 91t-68.5 129.5t-24 150q0 81 23 157.5t66.5 136.5t107 96.5t144.5 36.5t144.5 -37t107 -97t66.5 -137t23 -156zM635 390q0 52 -12.5 110.5t-40 107.5t-72.5 81.5t-109 32.5q-46 0 -81 -17
t-61 -44.5t-43.5 -62.5t-28.5 -72t-15.5 -72.5t-4.5 -63.5q0 -44 11.5 -98t38.5 -101t72 -78.5t112 -31.5t112 31.5t72 78.5t38.5 100.5t11.5 98.5z" />
    <glyph glyph-name="one" unicode="1" horiz-adv-x="390" 
d="M290 0h-106v689l-144 -55v86l250 95v-815z" />
    <glyph glyph-name="two" unicode="2" horiz-adv-x="666" 
d="M616 0h-576l326 338q21 22 44.5 49t43.5 57t33.5 61.5t13.5 62.5q0 36 -15 64t-40 47t-57 29t-65 10q-25 0 -52 -6.5t-53.5 -19.5t-50 -32t-41.5 -44l-69 69q60 73 128 101.5t146 28.5q53 0 102.5 -16t87.5 -46t61 -73.5t23 -98.5q0 -38 -11.5 -72.5t-31.5 -68.5
t-48.5 -67.5t-61.5 -68.5l-193 -205h356v-99z" />
    <glyph glyph-name="three" unicode="3" horiz-adv-x="708" 
d="M648 231q0 -55 -22 -100.5t-61 -78t-92 -50.5t-114 -18q-189 0 -319 159l69 70q23 -29 51.5 -53.5t60 -42t65 -27.5t66.5 -10q34 0 67.5 8t60.5 26t44 47t17 71q0 40 -20 68t-52 45t-73 24.5t-83 7.5v69q37 0 75 6t68 22t49 42.5t19 67.5q0 34 -15.5 60t-40 43
t-54.5 25.5t-60 8.5q-69 0 -125 -30t-95 -84l-68 68q57 72 129.5 105.5t163.5 33.5q58 0 107.5 -16.5t86 -45t57.5 -68t21 -85.5q0 -24 -6 -50t-19.5 -50.5t-36 -46.5t-54.5 -37q36 -14 61.5 -34.5t41.5 -45t23 -51t7 -53.5z" />
    <glyph glyph-name="four" unicode="4" horiz-adv-x="695" 
d="M665 188h-120v-189h-103v189h-412v68l420 543h95v-523h120v-88zM441 276v380l-294 -379z" />
    <glyph glyph-name="five" unicode="5" 
d="M647 260q0 -61 -23 -111.5t-62.5 -87t-93 -56.5t-114.5 -20q-94 0 -165 32.5t-129 98.5l71 72q40 -51 89.5 -77t103.5 -26q45 0 84.5 12t68.5 35t46 56t17 74q0 43 -16.5 77t-45.5 57.5t-70 35.5t-89 12q-38 0 -81.5 -14.5t-80.5 -44.5l-59 60l38 355l442 -1v-89h-361
l-25 -219q37 20 78.5 29t83.5 9q64 0 117.5 -21.5t92.5 -58.5t61 -85.5t22 -103.5z" />
    <glyph glyph-name="six" unicode="6" horiz-adv-x="742" 
d="M682 253q0 -53 -22 -101.5t-61.5 -85.5t-93.5 -59t-118 -22q-62 0 -119 21.5t-101 70.5t-70.5 128t-26.5 195q0 97 24 173.5t67 130t103.5 82t133.5 28.5q78 0 143.5 -29.5t113.5 -89.5l-63 -64q-39 48 -86 68.5t-104 20.5q-46 0 -86 -20t-69 -58t-45 -93t-14 -124
q35 45 90.5 69.5t118.5 24.5q55 0 106.5 -20t91.5 -55.5t63.5 -84.5t23.5 -106zM576 251q0 38 -15 70t-41 55t-61.5 36t-75.5 13t-74.5 -14t-60 -37.5t-40.5 -55t-15 -67.5q0 -35 15 -66.5t40.5 -55t60 -37.5t74.5 -14t75.5 13t61.5 36t41 54.5t15 69.5z" />
    <glyph glyph-name="seven" unicode="7" horiz-adv-x="586" 
d="M596 800l-394 -800h-114l347 706h-415v94h576z" />
    <glyph glyph-name="eight" unicode="8" horiz-adv-x="740" 
d="M690 214q0 -57 -24.5 -100t-66.5 -72t-98.5 -43.5t-120.5 -14.5t-120.5 14.5t-98.5 43.5t-66.5 72t-24.5 100q0 27 7 54.5t25 54t48 49.5t77 40q-40 18 -65.5 40.5t-40.5 47t-20.5 50t-5.5 50.5q0 48 25 88t65.5 68t92.5 43.5t106 15.5t104.5 -15.5t90 -43.5t63.5 -67.5
t24 -88.5q0 -26 -6 -52t-21 -50.5t-40.5 -46.5t-64.5 -39q46 -17 76.5 -40t48 -49.5t24.5 -54t7 -54.5zM559 592q0 33 -15 58.5t-40 43.5t-57.5 27t-66.5 9q-35 0 -67 -9t-57 -27t-40 -43.5t-15 -58.5t15 -58.5t40 -43t57 -27t67 -9.5q34 0 66.5 9.5t57.5 27t40 43t15 58.5z
M584 220q0 36 -17.5 65t-46 48.5t-65 30t-75.5 10.5t-75.5 -10.5t-65 -30t-46 -48.5t-17.5 -65t17.5 -64.5t46 -48t65 -29.5t75.5 -10t75.5 10t65 29.5t46 48t17.5 64.5z" />
    <glyph glyph-name="nine" unicode="9" horiz-adv-x="722" 
d="M672 399q0 -97 -24 -173.5t-67 -130t-103.5 -82t-133.5 -28.5q-78 0 -143.5 29.5t-113.5 89.5l63 64q39 -48 86 -68.5t104 -20.5q46 0 86 20t69 58t45 93t14 124q-35 -45 -90.5 -69.5t-118.5 -24.5q-56 0 -107 20t-91 55.5t-63.5 84.5t-23.5 106q0 53 22 101.5t61.5 85.5
t93.5 59t118 22q61 0 118.5 -21.5t101.5 -70.5t70.5 -128.5t26.5 -194.5zM549 548q0 35 -15 66.5t-40.5 55t-60 37.5t-74.5 14q-41 0 -76 -13t-61 -36t-41 -55t-15 -69q0 -38 15 -70t41 -55t61 -36t76 -13q40 0 74.5 14t60 37.5t40.5 55t15 67.5z" />
    <glyph glyph-name="colon" unicode=":" horiz-adv-x="253" 
d="M163 425h-103v103h103v-103zM163 0h-103v103h103v-103z" />
    <glyph glyph-name="semicolon" unicode=";" horiz-adv-x="253" 
d="M163 425h-103v103h103v-103zM161 0q0 -36 -17.5 -61t-55.5 -25q-17 0 -24 4v8q20 4 31 20t11 36q0 9 -3 18h-41v99h99v-99z" />
    <glyph glyph-name="less" unicode="&#x3c;" horiz-adv-x="672" 
d="M622 80l-572 242v116l572 240v-96l-496 -202l496 -204v-96z" />
    <glyph glyph-name="equal" unicode="=" horiz-adv-x="710" 
d="M640 450h-570v101h570v-101zM640 204h-570v101h570v-101z" />
    <glyph glyph-name="greater" unicode="&#x3e;" horiz-adv-x="672" 
d="M622 322l-572 -242v96l496 204l-496 202v96l572 -240v-116z" />
    <glyph glyph-name="question" unicode="?" horiz-adv-x="564" 
d="M524 593q0 -72 -42 -125.5t-106 -85.5l-60 -30q-20 -9 -34 -18.5t-23.5 -22.5t-14 -32t-4.5 -46v-62h-99v68q0 41 8 70.5t22 50.5t34 35t44 25l44 19q72 32 102 70t30 83q0 27 -13 51t-35 41.5t-52.5 27.5t-64.5 10q-42 0 -84.5 -17t-75.5 -48l-60 70q48 46 106.5 67.5
t124.5 21.5q55 0 101.5 -17.5t80.5 -47.5t52.5 -71t18.5 -87zM240 0h-99v99h99v-99z" />
    <glyph glyph-name="at" unicode="@" horiz-adv-x="1154" 
d="M1104 332q0 -56 -12.5 -105t-34 -89t-50.5 -70.5t-62 -49.5q-23 -14 -58.5 -22t-74.5 -8q-45 0 -82.5 22.5t-61.5 76.5q-22 -31 -45.5 -50.5t-48 -31t-50 -16t-51.5 -4.5q-42 0 -79 17t-65 47.5t-44 73.5t-16 94q0 67 25 134t67 121t96.5 88t114.5 34q51 0 91.5 -19
t67.5 -59l12 63h91l-83 -412q-10 -51 12.5 -80.5t64.5 -29.5q45 0 84 18.5t67 54t44 87t16 117.5q0 91 -34 170.5t-94 138t-141 92t-175 33.5q-99 0 -186.5 -37.5t-153 -103t-103 -152.5t-37.5 -186t37.5 -186t103 -152.5t153 -103t186.5 -37.5q75 0 135 19t105 45l46 -46
q-57 -36 -131 -59t-155 -23q-113 0 -212 42.5t-173 116.5t-117 172.5t-43 211.5q0 112 43 211.5t117 173t173 116.5t212 43q107 0 200 -37.5t161.5 -104t108 -158.5t39.5 -201zM715 447q-25 38 -61 55t-76 17q-51 0 -89.5 -31t-63.5 -75.5t-37.5 -94.5t-12.5 -88
q0 -76 33.5 -116.5t84.5 -40.5q22 0 46.5 6.5t47 20.5t42 36t32.5 54z" />
    <glyph glyph-name="A" unicode="A" horiz-adv-x="859" 
d="M859 0h-112l-75 162h-476l-74 -162h-112l377 800h95zM633 246l-199 433l-200 -433h399z" />
    <glyph glyph-name="B" unicode="B" horiz-adv-x="680" 
d="M650 218q0 -44 -20 -83.5t-54 -69.5t-78.5 -48t-93.5 -18l-324 1v800h284q52 0 96.5 -14.5t77.5 -42.5t51.5 -67.5t18.5 -88.5q0 -33 -9.5 -60t-25 -48.5t-34.5 -37t-37 -25.5q28 -9 54.5 -26t47.5 -42t33.5 -57.5t12.5 -72.5zM507 585q0 39 -15.5 65t-41.5 41.5
t-60.5 22.5t-73.5 7h-135v-275h135q94 0 142.5 33.5t48.5 105.5zM540 222q0 34 -14.5 61t-38.5 46t-54.5 28.5t-63.5 9.5l-187 1v-282h165q36 0 71 7.5t62 24t43.5 42.5t16.5 62z" />
    <glyph glyph-name="C" unicode="C" horiz-adv-x="827" 
d="M827 132l-116 116zM811 148q-28 -37 -65.5 -67t-80 -51.5t-89.5 -33t-94 -11.5q-90 0 -169 32.5t-137.5 89t-92 132t-33.5 162.5q0 86 33.5 161.5t92 131.5t137.5 88.5t169 32.5q97 0 182.5 -41.5t143.5 -116.5l-73 -73q-19 25 -47.5 49t-62 42.5t-70.5 30t-73 11.5
q-68 0 -127.5 -25t-104 -67.5t-70 -100t-25.5 -123.5t25.5 -123.5t70 -100.5t104 -67.5t127.5 -24.5q36 0 73.5 11t71.5 30t62.5 44t47.5 52z" />
    <glyph glyph-name="D" unicode="D" horiz-adv-x="831" 
d="M791 400q0 -83 -28.5 -156t-79 -127t-120 -85.5t-151.5 -31.5h-332v800l332 -1q82 0 152 -31t120 -85t78.5 -126.5t28.5 -156.5zM686 405q0 61 -24.5 118t-67.5 100.5t-102 69.5t-128 26h-180v-631h180q68 0 127 25t102.5 68t68 101t24.5 123z" />
    <glyph glyph-name="E" unicode="E" horiz-adv-x="648" 
d="M608 0h-528v800h528v-85h-427v-255h421v-82h-421v-289h427v-89z" />
    <glyph glyph-name="F" unicode="F" horiz-adv-x="628" 
d="M608 711h-427v-251h421v-84h-421v-376h-101v799h528v-88z" />
    <glyph glyph-name="G" unicode="G" horiz-adv-x="856" 
d="M816 148q-23 -33 -59 -62.5t-80 -52t-93.5 -35.5t-100.5 -13q-90 0 -168.5 32t-137.5 88.5t-93 132.5t-34 163q0 86 34 161.5t92.5 131.5t137.5 88.5t169 32.5q97 0 180.5 -41.5t143.5 -110.5l-71 -71q-46 60 -113.5 92t-139.5 32q-68 0 -128.5 -24.5t-105.5 -67
t-71 -100t-26 -123.5q0 -67 26 -125t71 -100.5t105.5 -67t128.5 -24.5q72 0 132.5 29.5t100.5 74.5v115h-175v89h275v-244z" />
    <glyph glyph-name="H" unicode="H" horiz-adv-x="775" 
d="M705 0h-105v376h-415v-376h-105v799h105v-337h415v337h105v-799z" />
    <glyph glyph-name="I" unicode="I" horiz-adv-x="255" 
d="M185 0h-105v799h105v-799z" />
    <glyph glyph-name="J" unicode="J" horiz-adv-x="562" 
d="M502 258q0 -78 -27.5 -130.5t-67.5 -84t-86.5 -45t-83.5 -13.5q-61 0 -118 25t-99 67l68 68q27 -27 62.5 -43.5t73.5 -16.5q32 0 63 11.5t55.5 33t39.5 53t15 70.5v547h105v-542z" />
    <glyph glyph-name="K" unicode="K" horiz-adv-x="670" 
d="M680 0h-144l-351 381v-381h-105v800h105v-392l365 392h124l-368 -396z" />
    <glyph glyph-name="L" unicode="L" horiz-adv-x="631" 
d="M621 0h-541v799h105v-699h436v-100z" />
    <glyph glyph-name="M" unicode="M" horiz-adv-x="948" 
d="M878 0h-100v654l-303 -525l-295 534v-663h-100v800h128l268 -486l280 486h122v-800z" />
    <glyph glyph-name="N" unicode="N" horiz-adv-x="815" 
d="M745 0h-98l-469 642v-642h-98v800h99l468 -639v639h98v-800z" />
    <glyph glyph-name="O" unicode="O" horiz-adv-x="939" 
d="M899 401q0 -86 -33.5 -162t-91 -132.5t-135 -89t-164.5 -32.5q-88 0 -165.5 32.5t-135 89t-91 132t-33.5 162.5t33.5 162.5t91 131.5t135 88t165.5 32q87 0 164.5 -32.5t135 -88.5t91 -131.5t33.5 -161.5zM795 401q0 65 -25 122.5t-68.5 100t-102 67.5t-124.5 25
q-67 0 -125.5 -25t-102 -67.5t-68.5 -100t-25 -122.5q0 -66 25 -123.5t68.5 -100.5t102 -68t125.5 -25q66 0 124.5 25t102 68t68.5 100.5t25 123.5z" />
    <glyph glyph-name="P" unicode="P" horiz-adv-x="660" 
d="M640 542q0 -55 -21.5 -103t-58.5 -83.5t-86.5 -56t-105.5 -20.5h-185v-279h-103v799h288q56 0 105.5 -20t86.5 -54.5t58.5 -81.5t21.5 -101zM534 545q0 41 -16 72.5t-44 53t-64.5 32.5t-78.5 11l-148 -1v-355h147q43 0 80 14t64.5 39t43.5 59t16 75z" />
    <glyph glyph-name="Q" unicode="Q" horiz-adv-x="937" 
d="M897 401q0 -75 -26 -144t-75 -126l83 -83l-60 -61l-85 86q-57 -43 -123.5 -65.5t-136.5 -22.5q-87 0 -164 32t-134.5 88t-91.5 132t-34 164q0 87 33.5 163t91.5 131.5t135 87.5t164 32q86 0 163 -32t134.5 -87.5t91.5 -131.5t34 -163zM796 401q0 66 -25.5 123.5
t-69.5 100t-102.5 67t-124.5 24.5t-124.5 -24.5t-102 -67t-69 -100t-25.5 -123.5t25.5 -124.5t69 -103t102 -70t124.5 -25.5q54 0 100.5 17t91.5 46l-85 86l60 60l86 -87q33 45 51 94.5t18 106.5z" />
    <glyph glyph-name="R" unicode="R" horiz-adv-x="690" 
d="M675 0h-121l-56 174q-11 35 -28.5 65t-43.5 51.5t-61.5 34t-83.5 12.5h-98v-337h-103v799l308 1q57 0 101.5 -17.5t76 -48.5t48 -73t16.5 -91q0 -43 -15 -78t-39 -60.5t-55.5 -42t-64.5 -22.5q51 -11 80 -45t51 -91q14 -37 28 -77t25 -71q8 -25 17.5 -45.5t17.5 -37.5z
M524 562q0 37 -14.5 67t-39.5 50t-58.5 31t-70.5 11h-158v-305h158q88 0 135.5 40t47.5 106z" />
    <glyph glyph-name="S" unicode="S" horiz-adv-x="642" 
d="M612 194q0 -40 -18.5 -77.5t-52.5 -67t-82 -47t-107 -17.5q-49 0 -90 5.5t-78 18t-72 33.5t-72 52l76 76q51 -45 108.5 -66t120.5 -21q29 0 57 7.5t50.5 21.5t36 35.5t13.5 50.5t-12.5 51t-38 40.5t-65 36t-93.5 36.5q-50 18 -91.5 39.5t-71.5 49.5t-47 64.5t-17 84.5
t20.5 87.5t55.5 68t82 44.5t101 16q83 0 146.5 -21t121.5 -73l-74 -75q-34 34 -86 54t-103 20q-30 0 -58.5 -7.5t-50.5 -22.5t-35 -37t-13 -50q0 -30 13.5 -53t40 -42.5t65.5 -36.5t90 -34q61 -21 104.5 -44.5t71.5 -53t41 -65.5t13 -81z" />
    <glyph glyph-name="T" unicode="T" horiz-adv-x="649" 
d="M629 706h-246v-706h-107v706h-246v93h599v-93z" />
    <glyph glyph-name="U" unicode="U" horiz-adv-x="831" 
d="M781 800v-436q0 -81 -24 -150t-69.5 -119.5t-111.5 -79.5t-149 -29q-82 0 -148 28.5t-112.5 78.5t-71.5 118t-25 148v441h105v-442q0 -54 16 -103.5t47 -87t77.5 -59.5t108.5 -22q64 0 111 21t78 57.5t46.5 85.5t15.5 105v445h106z" />
    <glyph glyph-name="V" unicode="V" horiz-adv-x="745" 
d="M740 800l-304 -800h-110l-311 800h117l249 -669l244 669h115z" />
    <glyph glyph-name="W" unicode="W" horiz-adv-x="1087" 
d="M1082 800l-255 -800h-98l-180 615l-180 -615h-99l-255 800h109l204 -638l176 638h88l176 -638l203 638h111z" />
    <glyph glyph-name="X" unicode="X" horiz-adv-x="727" 
d="M727 0h-126l-233 349l-233 -349h-125l294 416l-270 384h124l210 -313l209 313h125l-270 -382z" />
    <glyph glyph-name="Y" unicode="Y" horiz-adv-x="753" 
d="M748 799l-322 -467v-333h-105v334l-306 466h122l237 -381l254 381h120z" />
    <glyph glyph-name="Z" unicode="Z" horiz-adv-x="704" 
d="M674 800l-457 -700h454v-100h-631l465 708h-450v92h619z" />
    <glyph glyph-name="bracketleft" unicode="[" horiz-adv-x="318" 
d="M303 -255h-243v1116h243v-79h-154v-958h154v-79z" />
    <glyph glyph-name="backslash" unicode="\" horiz-adv-x="271" 
d="M291 -57h-80l-231 928h80z" />
    <glyph glyph-name="bracketright" unicode="]" horiz-adv-x="318" 
d="M258 -255h-243v79h154v958h-154v79h243v-1116z" />
    <glyph glyph-name="asciicircum" unicode="^" horiz-adv-x="647" 
d="M577 405h-97l-156 283l-157 -283h-97l217 394h73z" />
    <glyph glyph-name="underscore" unicode="_" horiz-adv-x="555" 
d="M580 -153h-605v77h605v-77z" />
    <glyph glyph-name="grave" unicode="`" horiz-adv-x="580" 
d="M349 650h-66l-144 193h121z" />
    <glyph glyph-name="a" unicode="a" horiz-adv-x="580" 
d="M530 0h-96v46q-42 -32 -93.5 -47t-102.5 -15t-90 13.5t-65.5 37t-39.5 55t-13 66.5q0 94 75.5 144t228.5 50h101q1 34 -8.5 64.5t-30 52.5t-51 35t-70.5 13q-45 0 -87.5 -16.5t-76.5 -48.5l-57 57q48 42 103.5 64t121.5 22q57 0 103.5 -17.5t79 -50.5t50.5 -80t18 -107
v-338zM433 122v161l-99 1q-42 0 -80 -6.5t-66.5 -21t-45 -38t-16.5 -56.5q0 -26 12 -45t31.5 -31t44.5 -18t51 -6q52 0 92.5 14.5t75.5 45.5z" />
    <glyph glyph-name="b" unicode="b" horiz-adv-x="646" 
d="M616 283q0 -59 -20.5 -113t-58.5 -95t-91 -65.5t-118 -24.5q-51 0 -95.5 17.5t-76.5 46.5v-50h-96v831h96v-300q36 32 78.5 47t93.5 15q63 0 116 -24.5t91.5 -66.5t59.5 -98t21 -120zM519 282q0 50 -15.5 91t-44 70.5t-68 45.5t-87.5 16q-42 0 -78.5 -12.5t-70.5 -41.5
v-322q32 -29 71 -43.5t81 -14.5q47 0 86 15.5t67 43.5t43.5 66.5t15.5 85.5z" />
    <glyph glyph-name="c" unicode="c" horiz-adv-x="591" 
d="M581 88q-42 -48 -103 -75.5t-127 -27.5q-65 0 -121.5 23t-98.5 63.5t-66.5 96.5t-24.5 121q0 64 24 119.5t66 96.5t98.5 64.5t122.5 23.5q65 0 125.5 -26t98.5 -71l-62 -61q-22 29 -66 50.5t-95 21.5q-44 0 -83.5 -17t-68.5 -46t-46 -69t-17 -86t16.5 -86t45.5 -69
t68.5 -46t84.5 -17q48 0 91.5 19.5t75.5 58.5z" />
    <glyph glyph-name="d" unicode="d" horiz-adv-x="656" 
d="M596 -1h-96v50q-32 -29 -76.5 -46.5t-95.5 -17.5q-65 0 -118 24.5t-91 65.5t-58.5 95t-20.5 113q0 64 21 120t59.5 98t91.5 66.5t116 24.5q51 0 93.5 -15t78.5 -47v300h96v-831zM501 129v323q-33 29 -70.5 41t-79.5 12q-48 0 -87.5 -16t-68 -45.5t-44 -70.5t-15.5 -91
q0 -47 15.5 -85.5t43.5 -66.5t67 -43.5t86 -15.5q45 0 83 15t70 43z" />
    <glyph glyph-name="e" unicode="e" 
d="M657 290q0 -9 -0.5 -19t-1.5 -18h-520q9 -45 30 -79.5t50 -58t64 -35.5t73 -12q57 0 95.5 22t67.5 51l64 -64q-46 -45 -100.5 -68.5t-129.5 -23.5q-66 0 -122.5 24t-98 65t-65 96.5t-23.5 118.5t24 118.5t65.5 96.5t97.5 65t120 24q62 0 118.5 -22.5t99 -62.5t67.5 -96
t25 -122zM559 329q-8 46 -29.5 80t-50.5 56.5t-63 33.5t-66 11q-35 0 -69.5 -11.5t-64 -34t-51 -56.5t-29.5 -79h423z" />
    <glyph glyph-name="f" unicode="f" horiz-adv-x="350" 
d="M365 747q-14 5 -30.5 7.5t-30.5 2.5q-54 0 -79 -25.5t-25 -93.5l1 -59h108v-84h-108v-495h-97v495h-84v84h84v57q0 55 13 94.5t36 64.5t55 37t70 12q23 0 47.5 -4.5t39.5 -9.5v-83z" />
    <glyph glyph-name="g" unicode="g" horiz-adv-x="602" 
d="M592 518h-104q33 -31 48 -69t15 -70q0 -37 -15 -72t-42 -63.5t-65 -48.5t-84 -27q-53 -8 -80 -24t-27 -33.5t27 -32.5t83 -21q50 -6 92.5 -20.5t73.5 -37t48.5 -51.5t17.5 -64q0 -28 -19 -56.5t-54.5 -52t-85.5 -38.5t-111 -15q-59 0 -109.5 14t-87 36.5t-57.5 51.5
t-21 60q0 60 44.5 100.5t119.5 60.5q-27 9 -42.5 27t-17 39t13.5 40.5t50 31.5q-72 29 -110 81t-38 115q0 51 22.5 91t57.5 67t79 41.5t88 14.5q24 0 49.5 -4t43.5 -11l197 1v-61zM455 377q0 29 -12 54t-33 44t-49 29.5t-59 10.5q-32 0 -59.5 -10.5t-48.5 -29.5t-33 -44
t-12 -54t12 -54.5t33 -44.5t48.5 -29.5t59.5 -10.5q31 0 59 10.5t49 29.5t33 44.5t12 54.5zM486 -110q0 21 -14 38.5t-38 30t-56.5 20t-69.5 7.5q-38 0 -70.5 -7.5t-56.5 -20t-38 -30t-14 -38.5q0 -20 14 -38t38 -31t56.5 -20.5t70.5 -7.5q37 0 69.5 7.5t56.5 20.5t38 31
t14 38z" />
    <glyph glyph-name="h" unicode="h" horiz-adv-x="623" 
d="M573 0h-95v338q0 85 -40.5 127t-115.5 42q-45 0 -90 -16.5t-76 -43.5v-447h-96v829h96v-310q35 33 88 53.5t106 20.5q106 0 164.5 -62t58.5 -180v-351z" />
    <glyph glyph-name="i" unicode="i" horiz-adv-x="233" 
d="M163 727h-103v103h103v-103zM160 0h-97v579h97v-579z" />
    <glyph glyph-name="j" unicode="j" horiz-adv-x="258" 
d="M188 727h-103v103h103v-103zM185 -49q0 -52 -16.5 -92t-44.5 -65.5t-65 -36.5t-77 -5l-32 91q22 -7 46 -4.5t44.5 15t34 37t13.5 62.5v626h97v-628z" />
    <glyph glyph-name="k" unicode="k" horiz-adv-x="517" 
d="M527 0h-120l-250 281v-281h-97v829h97v-520l224 270h109l-232 -279z" />
    <glyph glyph-name="l" unicode="l" horiz-adv-x="294" 
d="M284 3q-14 -8 -37 -13t-46 -5q-64 0 -102.5 40.5t-38.5 118.5v686h97v-659q0 -48 21 -71t58 -23q14 0 26 4t22 9v-87z" />
    <glyph glyph-name="m" unicode="m" horiz-adv-x="937" 
d="M887 0h-95v350q0 78 -39.5 117.5t-97.5 39.5q-35 0 -74 -19t-67 -53q4 -17 5.5 -38.5t1.5 -46.5v-350h-96v350q0 79 -39.5 118t-96.5 39q-32 0 -70 -19t-63 -52v-436h-96v578l96 1v-70q13 19 33 34.5t43 26.5t48 17t49 6q23 0 47 -6.5t46 -18.5t39.5 -28.5t28.5 -36.5
q18 20 41.5 36.5t50 28.5t54 18.5t54.5 6.5q39 0 75 -13t63 -41t43 -72.5t16 -108.5v-358z" />
    <glyph glyph-name="n" unicode="n" horiz-adv-x="626" 
d="M576 0h-96v340q0 85 -38.5 126t-123.5 41q-17 0 -39 -6t-44.5 -15.5t-43 -22.5t-34.5 -28v-435h-97v578h97v-70q16 16 38 31.5t47.5 27.5t53.5 19t55 7q106 0 165.5 -62t59.5 -183v-348z" />
    <glyph glyph-name="o" unicode="o" 
d="M349 -15q-65 0 -121 23.5t-98 64.5t-66 96.5t-24 119.5q0 63 24 118.5t66 97t98 65t121 23.5q64 0 120.5 -23.5t98 -64t65.5 -96.5t24 -120q0 -65 -24 -120.5t-65.5 -96t-98 -64t-120.5 -23.5zM348 508q-45 0 -84 -16.5t-67.5 -46t-44.5 -69.5t-16 -87t16 -87t44.5 -69.5
t67.5 -46t84 -16.5t84 16.5t67.5 46t44.5 69.5t16 87t-16 87t-44.5 69.5t-67.5 46t-84 16.5z" />
    <glyph glyph-name="p" unicode="p" horiz-adv-x="646" 
d="M616 288q0 -60 -20.5 -115t-58 -97t-90.5 -66.5t-119 -24.5q-97 0 -173 64l1 -300h-96v830h95v-47q40 32 82.5 46.5t90.5 14.5q61 0 114 -23.5t91.5 -64.5t60.5 -97t22 -120zM519 282q0 50 -16 91t-44.5 70.5t-67.5 45.5t-85 16q-42 0 -79 -12t-73 -42v-321
q69 -60 152 -60q48 0 87.5 15.5t67 43t43 66.5t15.5 87z" />
    <glyph glyph-name="q" unicode="q" horiz-adv-x="656" 
d="M596 -251h-96l1 300q-76 -64 -173 -64q-66 0 -119.5 24.5t-91 66.5t-57.5 97t-20 115q0 63 22 119t60.5 97t91 65t114.5 24q48 0 90.5 -14.5t81.5 -46.5v47h96v-830zM501 130v321q-33 29 -69.5 41.5t-81.5 12.5q-46 0 -85 -16t-67.5 -45.5t-44.5 -70.5t-16 -91
q0 -48 15.5 -87t43 -66.5t67 -43t87.5 -15.5q45 0 83.5 16t67.5 44z" />
    <glyph glyph-name="r" unicode="r" horiz-adv-x="437" 
d="M447 519l-55 -88q-11 13 -26 25t-31.5 21.5t-33 15t-30.5 5.5q-16 0 -36 -5.5t-37.5 -23t-29.5 -51t-12 -89.5v-329h-96v578h96v-78q26 46 65.5 69.5t84.5 23.5q38 0 75.5 -21t65.5 -53z" />
    <glyph glyph-name="s" unicode="s" horiz-adv-x="515" 
d="M485 148q0 -40 -19 -70.5t-51 -51.5t-73.5 -31.5t-86.5 -10.5q-57 0 -113.5 20t-101.5 57l60 61q32 -27 73 -42t83 -15q26 0 50.5 4.5t43 14t29.5 23.5t11 33q0 36 -43.5 59.5t-124.5 53.5q-34 12 -66.5 28t-58 37t-41 48.5t-15.5 62.5q0 36 16 66t45 52t68.5 34t87.5 12
q123 0 207 -78l-59 -59q-62 57 -148 57q-23 0 -44.5 -5t-38.5 -15t-27.5 -25t-10.5 -35q0 -33 38.5 -56t123.5 -52q34 -12 67.5 -27.5t59.5 -37t42.5 -49t16.5 -63.5z" />
    <glyph glyph-name="t" unicode="t" horiz-adv-x="403" 
d="M378 10q-49 -25 -114 -25q-81 0 -119.5 42t-38.5 144v321h-91v40q33 15 60.5 38t47.5 51t32.5 60.5t16.5 66.5h30v-170l175 1v-87h-175v-331q0 -48 20.5 -69t63.5 -21q48 0 92 23v-84z" />
    <glyph glyph-name="u" unicode="u" horiz-adv-x="626" 
d="M566 1h-97v70q-16 -16 -38 -31.5t-47.5 -27.5t-53 -19t-54.5 -7q-106 0 -166 62t-60 183v348h96v-340q0 -85 38.5 -126t123.5 -41q16 0 38.5 6t45 15.5t43 22.5t34.5 28v435h97v-578z" />
    <glyph glyph-name="v" unicode="v" horiz-adv-x="568" 
d="M563 578l-218 -579h-111l-219 579h106l167 -494l169 494h106z" />
    <glyph glyph-name="w" unicode="w" horiz-adv-x="864" 
d="M859 579l-187 -580h-89l-146 446l-145 -446h-89l-188 580h101l135 -467l140 467h90l141 -466l136 466h101z" />
    <glyph glyph-name="x" unicode="x" horiz-adv-x="544" 
d="M539 -1h-110l-152 234l-154 -234h-108l208 305l-190 275h108l136 -209l136 209h108l-191 -275z" />
    <glyph glyph-name="y" unicode="y" horiz-adv-x="557" 
d="M552 579l-258 -698q-14 -37 -33.5 -62.5t-43 -41.5t-48.5 -23t-50 -7q-5 0 -19.5 1.5t-24.5 4.5l-23 86q7 -2 21.5 -5t19.5 -3q15 0 33 2t36 10t34 24t27 45l32 88l-240 579h98l182 -465l162 465h95z" />
    <glyph glyph-name="z" unicode="z" horiz-adv-x="554" 
d="M539 579l-354 -494l343 1v-86h-508l352 494h-326v85h493z" />
    <glyph glyph-name="braceleft" unicode="{" horiz-adv-x="404" 
d="M349 -276h-60q-48 0 -74.5 22.5t-39 60t-15 85t-3 97t-3 97t-14.5 85t-37.5 60t-72.5 22.5v73q46 0 71 22.5t36.5 60t14 84.5t4 96.5t5 97t17.5 85t41.5 60t77.5 22.5h52v-93h-39q-23 0 -37 -17.5t-21.5 -46.5t-10.5 -66t-3 -77q0 -36 -1 -75t-9 -75.5t-26.5 -66.5
t-53.5 -47q34 -15 53 -41.5t27 -60t9.5 -72t1.5 -77.5q0 -45 3.5 -85t11.5 -70t22 -48t34 -18h39v-94z" />
    <glyph glyph-name="bar" unicode="|" horiz-adv-x="267" 
d="M165 -195h-83v1066h83v-1066z" />
    <glyph glyph-name="braceright" unicode="}" horiz-adv-x="404" 
d="M349 253q-47 0 -72.5 -22.5t-37.5 -60t-14.5 -85t-3 -97t-3 -97t-15 -85t-39 -60t-74.5 -22.5h-60v94h39q20 0 33.5 18t22 48t12 70t3.5 85q0 39 1 77.5t9.5 72t27 60t53.5 41.5q-35 17 -53.5 47t-26.5 66.5t-9 75.5t-1 75q0 40 -3 77t-10.5 66t-22 46.5t-36.5 17.5h-39
v93h52q49 0 77 -22.5t42 -60t17.5 -85t4.5 -97t4 -96.5t14.5 -84.5t36.5 -60t71 -22.5v-73z" />
    <glyph glyph-name="asciitilde" unicode="~" horiz-adv-x="651" 
d="M626 367q-38 -32 -78 -51t-94 -19q-42 0 -77 11.5t-66.5 25.5t-61.5 25.5t-61 11.5q-26 0 -47.5 -7t-41 -18t-37.5 -25.5t-37 -30.5v107q72 74 173 74q38 0 73 -11.5t68 -25t64 -24.5t61 -11q25 0 47 7.5t41.5 19t37.5 26.5l36 30v-115z" />
    <glyph glyph-name="uni00A0" unicode="&#xa0;" horiz-adv-x="315" 
 />
    <glyph glyph-name="exclamdown" unicode="&#xa1;" horiz-adv-x="227" 
d="M40 0l41 628h45l41 -628h-127zM54 800h99v-99h-99v99z" />
    <glyph glyph-name="cent" unicode="&#xa2;" horiz-adv-x="599" 
d="M307 74v431q-36 -8 -67.5 -27.5t-54 -48t-35.5 -64.5t-13 -76t12.5 -75.5t35 -64t53.5 -48t69 -27.5zM307 654h59v-62q58 -4 111.5 -30.5t85.5 -65.5l-62 -61q-17 24 -53 46t-82 26v-436q42 4 78 25t63 53l62 -61q-37 -42 -91 -70t-112 -32v-90h-59v92q-57 7 -105.5 33
t-84.5 66t-56.5 91.5t-20.5 110.5t20 110.5t56 91.5t85 65.5t106 33.5v64z" />
    <glyph glyph-name="sterling" unicode="&#xa3;" horiz-adv-x="624" 
d="M452 -11q-35 0 -78 6.5t-81 14.5q-12 2 -27 3.5t-30.5 2.5t-29.5 1.5t-23 0.5q-11 0 -27.5 -2.5t-35 -6.5t-37 -9t-33.5 -10q35 55 61 136t39 190h-73v81h81q2 15 4 31t4 30.5t3.5 25t1.5 14.5q5 45 9 75t9 50t9 34.5t9 28.5q22 63 73 96t114 33q54 0 96 -21.5t66 -53.5
l-62 -61q-15 20 -40.5 36t-57.5 16q-37 0 -62 -20.5t-40 -49.5q-10 -20 -16.5 -55t-11.5 -70q-2 -21 -6 -54t-11 -85h192v-81h-199q-6 -53 -14.5 -105.5t-38.5 -110.5q23 6 41 7.5t35 1.5q19 0 43.5 -4t43.5 -7l50 -9q13 -2 29 -3t35 -1q34 0 61 6.5t47 17.5v-103
q-46 -17 -122 -17z" />
    <glyph glyph-name="currency" unicode="&#xa4;" horiz-adv-x="804" 
d="M488 276h-237q18 -43 48 -78t70 -60t88.5 -38.5t102.5 -13.5q17 0 37 3t40 9t39.5 14t35.5 18l51 -89q-42 -26 -95.5 -40.5t-107.5 -14.5q-75 0 -142.5 22t-122.5 61t-94.5 92t-59.5 115h-103l46 79h39q-1 11 -1.5 21.5t-0.5 21.5q0 10 0.5 20t1.5 20h-93l46 79h62
q19 66 58 120.5t94 94t123.5 61.5t146.5 22q24 0 52.5 -4.5t56.5 -12t53 -18t42 -21.5l-53 -90q-30 20 -72.5 33t-78.5 13q-56 0 -105 -14t-89.5 -40t-70.5 -62.5t-48 -81.5h380l-47 -79h-352q-1 -9 -1.5 -18t-0.5 -19q0 -24 3 -46h305z" />
    <glyph glyph-name="yen" unicode="&#xa5;" horiz-adv-x="758" 
d="M678 168h-252v-169h-105v169h-217v101h217v64l-40 60h-177v101h111l-200 305h122l237 -381l254 381h120l-210 -305h140v-101h-210l-42 -61v-63h252v-101z" />
    <glyph glyph-name="brokenbar" unicode="&#xa6;" horiz-adv-x="247" 
d="M165 411h-83v460h83v-460zM165 -195h-83v461h83v-461z" />
    <glyph glyph-name="section" unicode="&#xa7;" horiz-adv-x="1166" 
d="M1062 386q0 -7 -5 -12t-12 -5t-12 5t-5 12t4.5 12t11.5 5t12.5 -5t5.5 -12zM1024 425q0 -8 -6 -14t-14 -6t-14 6t-6 14t6 14t14 6t14 -6t6 -14zM974 461q0 -9 -6 -15t-14 -6t-14.5 6t-6.5 15q0 8 6 14t14 6t14.5 -6t6.5 -14zM922 496q0 -10 -6.5 -17t-16.5 -7t-17 7
t-7 17q0 9 6.5 16t16.5 7q9 0 16.5 -7t7.5 -16zM864 526q0 -11 -7 -18.5t-18 -7.5t-19 7.5t-8 18.5t7.5 18.5t18.5 7.5t18.5 -7.5t7.5 -18.5zM795 554q0 -11 -8 -19t-19 -8t-19 8t-8 19t7.5 19t18.5 8t19.5 -8t8.5 -19zM720 575q0 -11 -8 -19.5t-19 -8.5t-20 8.5t-9 19.5
t8 19.5t20 8.5q11 0 19.5 -8.5t8.5 -19.5zM1030 353q-1 -2 -2 -3.5t-2 -3.5q-5 -8 -6 -6l-17 12q-75 60 -159 100t-175 63q-12 -25 -21.5 -58t-12.5 -55q-2 -5 -9 -5q-8 0 -9.5 0.5t-0.5 4.5q2 15 6 33.5t9.5 37.5t11 37t10.5 31q59 -15 107 -32t90.5 -38t81.5 -46t80 -56z
M648 749l-1 -62l-54 19v-36q21 -2 36 -20t15 -40q0 -25 -18 -42.5t-43 -17.5q-27 0 -45.5 17.5t-18.5 43.5q0 22 15 39t37 20v36l-53 -19l-3 62l49 -13l-21 65h76l-19 -65zM607 513q0 -11 -7.5 -18.5t-18.5 -7.5q-10 0 -17.5 7.5t-7.5 18.5t7.5 18.5t18.5 7.5q10 0 17.5 -8
t7.5 -18zM495 578q0 -11 -8 -19.5t-19 -8.5t-20 8.5t-9 19.5t8 19.5t20 8.5q11 0 19.5 -8.5t8.5 -19.5zM603 456q0 -9 -6.5 -15t-14.5 -6t-15.5 6t-7.5 15t7 15t15 6t15 -6t7 -15zM600 408q0 -8 -5.5 -13t-12.5 -5t-13 5t-6 13q0 7 5.5 12t12.5 5t13 -5t6 -12zM421 558
q0 -11 -8 -19t-19 -8t-19 8t-8 19t7.5 19t18.5 8t19.5 -8t8.5 -19zM349 530q0 -11 -7 -18.5t-18 -7.5t-19 7.5t-8 18.5t7.5 18.5t18.5 7.5t18.5 -7.5t7.5 -18.5zM545 402q2 -5 -8 -5q-8 0 -10 2q-5 25 -14 57.5t-21 57.5q-42 -9 -85.5 -24.5t-85.5 -35.5t-80.5 -43.5
t-69.5 -48.5q-5 -4 -11 -9.5t-10 -7.5q-2 -1 -6.5 5.5t-3.5 8.5q2 4 9 10.5t11 9.5q37 29 75 52.5t80 43t89.5 35.5t104.5 30q5 -12 10.5 -30t10.5 -37t9 -37.5t6 -33.5zM288 500q0 -10 -6.5 -17t-16.5 -7t-17 7t-7 17q0 9 6.5 16t16.5 7q9 0 16.5 -7t7.5 -16zM1146 320
q-4 -10 -8.5 -23.5t-9.5 -26.5q-2 -8 -5 -15.5t-6 -15.5q4 -17 0.5 -31.5t-8.5 -22.5q-2 -4 -6.5 -9.5t-12.5 -9.5l-43 -101q4 -13 8.5 -34t6.5 -34q1 -13 -6 -22l-57 -71q-48 22 -100.5 37t-105.5 24t-105.5 13t-101.5 4q-47 0 -102.5 -4t-111.5 -13.5t-108 -24t-93 -35.5
q-10 8 -21.5 18.5t-22.5 19.5l-26 21q-8 8 -10 15q-1 2 -1 5.5v5.5q0 5 1 17t2.5 25t2.5 24.5t1 17.5l-30 96q-4 2 -7.5 4.5t-5.5 5.5q-14 13 -17.5 33.5t6.5 39.5l-23 67q15 5 41.5 11.5t44.5 9.5q-3 -8 -8 -21.5t-10.5 -27.5t-9 -25t-3.5 -13q0 -5 2 -3q13 3 30.5 18.5
t26.5 27.5l25 -126q-11 9 -23 14t-28 10q-5 1 -8 1.5t-5 0.5q6 -21 15.5 -40.5t24 -34.5t33.5 -24t43 -9q18 0 35.5 6t32 17t23 27.5t8.5 36.5q0 19 -12.5 37t-33.5 18q-26 0 -37 -15t-11 -39q0 -11 3 -23q-25 4 -35.5 26t-10.5 44q0 35 21.5 60t58.5 25q14 0 22.5 -4
t19.5 -12q-11 17 -14.5 31t-3.5 34q0 21 8.5 40t19.5 35q26 -18 39.5 -41t13.5 -55q0 -11 -2.5 -21t-5.5 -21q12 12 27.5 22.5t33.5 10.5q25 0 42.5 -21t17.5 -45q0 -40 -38 -63q1 1 1 6q0 18 -12 31.5t-32 13.5t-30.5 -14.5t-10.5 -33.5q0 -18 9.5 -32t24 -24t32 -15
t32.5 -5q20 0 40.5 5t37 16t26.5 28.5t10 42.5q0 5 -0.5 8.5t-1.5 8.5q-14 -6 -31.5 -14t-33.5 -16l-4 122q18 -12 32 -21t30 -17q4 -2 3 3q-7 25 -15.5 45t-18.5 43h116q-12 -26 -19.5 -49.5t-12.5 -39.5q-2 -6 2 -4q14 8 31 19t31 22l-3 -123q-16 9 -30 15.5t-31 14.5v-18
q0 -45 24.5 -69t67.5 -24q18 0 35 5t31 14.5t22.5 24t8.5 34.5q0 17 -10.5 29.5t-28.5 12.5q-15 0 -25.5 -14t-15.5 -25q-11 11 -18 25t-7 29q0 29 14.5 49t46.5 20q17 0 32.5 -12t26.5 -24q-3 18 -3 35q0 32 15 57t38 43q13 -16 20.5 -33t7.5 -37q0 -22 -6.5 -42t-17.5 -39
q11 10 24 18t29 8q26 0 46 -19.5t20 -45.5q0 -14 -6 -28t-16 -26t-22.5 -21.5t-25.5 -13.5q6 7 8.5 20t2.5 21q0 35 -35 35q-21 0 -31 -20t-10 -38q0 -38 21 -54t53 -24q14 -5 28 -3q49 2 73 29.5t38 84.5q-19 -7 -36 -13t-35 -16q8 29 17.5 66.5t17.5 64.5q11 -13 23 -26
t25 -24q5 -5 5 4l-3 33q-2 14 -3.5 27.5t-3.5 23.5q22 -3 42.5 -7.5t36.5 -11.5zM230 465q0 -9 -6 -15t-14 -6t-14.5 6t-6.5 15q0 8 6 14t14 6t14.5 -6t6.5 -14zM181 429q0 -8 -6 -14t-14 -6t-14 6t-6 14t5.5 14t13.5 6t14.5 -6t6.5 -14zM139 390q0 -7 -5 -12t-12 -5t-12 5
t-5 12t4.5 12t11.5 5t12.5 -5t5.5 -12zM968 -113q0 -8 -13 -12q-86 -33 -168.5 -43.5t-178.5 -10.5q-107 0 -203.5 11.5t-196.5 45.5q-11 3 -11 9q0 5 10 9q42 17 90 28.5t98 19t99 11t93 3.5q40 0 87.5 -3t96 -10t96 -18.5t86.5 -27.5q15 -5 15 -12zM1103 223q0 4 -1.5 8.5
t-6.5 4.5t-9 -4.5t-7 -10.5t-4.5 -12.5t-1.5 -10.5t1.5 -8.5t6.5 -4.5t9 4.5t7 10.5t4.5 12.5t1.5 10.5zM624 619q-2 12 -10.5 20t-20.5 13q-1 -2 -0.5 -8t0.5 -14v-19q16 -2 31 8zM572 611l-1 41q-26 -8 -33 -34q13 -7 34 -7zM618 587q-14 9 -36 9q-9 0 -19 -2t-18 -7
q6 -10 18 -14.5t20 -4.5t19 5.5t16 13.5zM1043 -6q0 5 -3.5 17.5t-7.5 20.5l-31 -31l19 -41q6 9 14.5 19t8.5 15zM956 39q0 8 -6 13.5t-14 5.5q-19 0 -19 -19q0 -8 6 -14t14 -6t13.5 6t5.5 14zM940 -15q0 8 -6.5 14t-14.5 6t-14 -6t-6 -14t6.5 -14t14.5 -6t14 6t6 14z
M864 36q3 20 -13 36t-42 21q-26 4 -46.5 -6.5t-23.5 -30.5q-3 -19 13 -35t42 -21t46.5 6t23.5 30zM599 263q0 7 -5 12t-13 5q-7 0 -11.5 -5t-4.5 -12t5 -12t12 -5t12 5t5 12zM699 81q0 8 -6 13.5t-14 5.5q-19 0 -19 -19q0 -8 6 -14t14 -6t13.5 6t5.5 14zM693 25q0 8 -6.5 14
t-14.5 6q-9 0 -14.5 -6t-5.5 -14q0 -9 6 -15t14 -6q9 0 15 6t6 15zM612 69l-14 22q-5 8 -10.5 15.5t-7.5 7.5q-3 0 -8 -7.5t-10 -15.5l-12 -22l13 -23q5 -9 10 -16t8 -7t8 7t10 16zM499 81q0 8 -6 13.5t-14 5.5q-19 0 -19 -19q0 -8 6 -14t14 -6t13.5 6t5.5 14zM506 24
q0 8 -6.5 14t-14.5 6t-14 -6t-6 -14q0 -9 6.5 -15t14.5 -6t14 6t6 15zM415 57q-3 19 -23 30t-46 6q-26 -4 -42 -20.5t-13 -35.5q3 -20 23 -30.5t46 -6.5q26 5 42.5 21t12.5 36zM82 202q0 4 -2 10.5t-5 12.5t-7.5 10.5t-8.5 4.5q-5 0 -6 -6t-1 -10t1.5 -10t4.5 -12t7 -10
t9 -4t6.5 5t1.5 9zM230 36q0 8 -6 14t-14 6t-13.5 -6t-5.5 -14t6 -13.5t14 -5.5q19 0 19 19zM250 -17q0 8 -6.5 14t-14.5 6t-14 -6t-6 -14t6.5 -14t14.5 -6t14 6t6 14zM148 1l-33 27q-2 -11 -3.5 -25t-1.5 -16q0 -5 12.5 -15.5t22.5 -18.5q3 9 3 28v20z" />
    <glyph glyph-name="dieresis" unicode="&#xa8;" horiz-adv-x="599" 
d="M442 650h-90v100h90v-100zM212 650h-90v100h90v-100z" />
    <glyph glyph-name="copyright" unicode="&#xa9;" horiz-adv-x="646" 
d="M330 -256q-39 0 -79 8.5t-72 26.5l-32 85q40 -19 81 -29t68 -10q13 0 32.5 0.5t41 4.5t43 14.5t38.5 30t28 50.5t11 77v108q-48 -39 -90.5 -52t-92.5 -13q-54 0 -102.5 22.5t-85 60t-58 87t-21.5 104.5q0 54 22 103.5t58.5 87.5t85 60.5t101.5 22.5q52 0 100.5 -15
t83.5 -46v47h95v-597q0 -57 -15 -96.5t-38.5 -66t-53 -41.5t-58 -22.5t-53 -9.5t-38.5 -2zM492 452q-31 29 -72.5 43.5t-75.5 14.5q-45 0 -83.5 -14t-67.5 -39t-45.5 -60t-16.5 -78q0 -42 17 -76.5t46 -59.5t67.5 -39t81.5 -14q42 0 79.5 16t69.5 42v264z" />
    <glyph glyph-name="ordfeminine" unicode="&#xaa;" horiz-adv-x="392" 
d="M342 440h-83v24q-39 -22 -65 -28t-54 -6q-54 0 -87 30t-33 78q0 34 18 59t50 40t76 19.5t97 -2.5q-6 51 -30 71.5t-64 20.5q-19 0 -39.5 -7t-43.5 -25l-47 47q66 54 144 54q38 0 68 -12t49 -31q24 -24 34 -53t10 -76v-203zM259 601q-33 3 -61 2t-48.5 -7.5t-32 -18.5
t-11.5 -30q0 -23 18.5 -36.5t42.5 -13.5q21 0 43 6t49 21v77z" />
    <glyph glyph-name="guillemotleft" unicode="&#xab;" horiz-adv-x="506" 
d="M486 545l-180 -272l180 -273h-99l-178 273l178 272h99zM299 545l-180 -272l179 -273h-98l-180 273l180 272h99z" />
    <glyph glyph-name="logicalnot" unicode="&#xac;" horiz-adv-x="672" 
d="M612 193h-89v294h-483v84h572v-378z" />
    <glyph glyph-name="uni00AD" unicode="&#xad;" horiz-adv-x="374" 
d="M344 280h-314v94h314v-94z" />
    <glyph glyph-name="registered" unicode="&#xae;" horiz-adv-x="908" 
d="M454 -14q-89 0 -167 33.5t-136.5 92t-92 136.5t-33.5 167t33.5 167t92 136.5t136.5 92t167 33.5t167 -33.5t136.5 -92t92 -136.5t33.5 -167t-33.5 -167t-92 -136.5t-136.5 -92t-167 -33.5zM454 785q-77 0 -144 -29t-117.5 -79.5t-79.5 -118t-29 -143.5q0 -77 29 -144
t79.5 -117.5t117.5 -79.5t144 -29q76 0 143.5 29t118 79.5t79.5 117.5t29 144q0 76 -29 143.5t-79.5 118t-118 79.5t-143.5 29zM566 160l-36 113q-12 42 -38.5 71.5t-80.5 29.5h-54v-214h-77v512h90h107q31 0 59 -10.5t48 -30t32 -47t12 -61.5q0 -18 -7 -38t-21 -38
t-36 -33.5t-53 -24.5q39 -12 56 -32.5t26 -43.5t17 -46.5t20 -58.5q5 -14 9.5 -26t9.5 -22h-83zM446 621h-89v-193h89q42 0 73 25t31 70t-28 71.5t-76 26.5z" />
    <glyph glyph-name="macron" unicode="&#xaf;" 
d="M564 650h-434v75h434v-75z" />
    <glyph glyph-name="degree" unicode="&#xb0;" horiz-adv-x="436" 
d="M223 449q-35 0 -66.5 13.5t-55 37t-37.5 55.5t-14 68t13.5 67t37 54.5t55 37t67.5 13.5t67.5 -13.5t55 -37t37 -54.5t13.5 -67t-13.5 -68t-37 -55.5t-55 -37t-67.5 -13.5zM223 730q-23 0 -42.5 -8.5t-34 -23t-23 -34t-8.5 -41.5q0 -23 8.5 -42.5t23.5 -34.5t34.5 -23.5
t41.5 -8.5t41.5 8.5t34.5 23.5t23.5 34.5t8.5 42.5q0 22 -8.5 41.5t-23.5 34t-34.5 23t-41.5 8.5z" />
    <glyph glyph-name="plusminus" unicode="&#xb1;" horiz-adv-x="1166" 
d="M1062 386q0 -7 -5 -12t-12 -5t-12 5t-5 12t4.5 12t11.5 5t12.5 -5t5.5 -12zM1024 425q0 -8 -6 -14t-14 -6t-14 6t-6 14t6 14t14 6t14 -6t6 -14zM974 461q0 -9 -6 -15t-14 -6t-14.5 6t-6.5 15q0 8 6 14t14 6t14.5 -6t6.5 -14zM922 496q0 -10 -6.5 -17t-16.5 -7t-17 7
t-7 17q0 9 6.5 16t16.5 7q9 0 16.5 -7t7.5 -16zM864 526q0 -11 -7 -18.5t-18 -7.5t-19 7.5t-8 18.5t7.5 18.5t18.5 7.5t18.5 -7.5t7.5 -18.5zM795 554q0 -11 -8 -19t-19 -8t-19 8t-8 19t7.5 19t18.5 8t19.5 -8t8.5 -19zM720 575q0 -11 -8 -19.5t-19 -8.5t-20 8.5t-9 19.5
t8 19.5t20 8.5q11 0 19.5 -8.5t8.5 -19.5zM1030 353q-1 -2 -2 -3.5t-2 -3.5q-5 -8 -6 -6l-17 12q-75 60 -159 100t-175 63q-12 -25 -21.5 -58t-12.5 -55q-2 -5 -9 -5q-8 0 -9.5 0.5t-0.5 4.5q2 15 6 33.5t9.5 37.5t11 37t10.5 31q59 -15 107 -32t90.5 -38t81.5 -46t80 -56z
M648 749l-1 -62l-54 19v-36q21 -2 36 -20t15 -40q0 -25 -18 -42.5t-43 -17.5q-27 0 -45.5 17.5t-18.5 43.5q0 22 15 39t37 20v36l-53 -19l-3 62l49 -13l-21 65h76l-19 -65zM607 513q0 -11 -7.5 -18.5t-18.5 -7.5q-10 0 -17.5 7.5t-7.5 18.5t7.5 18.5t18.5 7.5q10 0 17.5 -8
t7.5 -18zM495 578q0 -11 -8 -19.5t-19 -8.5t-20 8.5t-9 19.5t8 19.5t20 8.5q11 0 19.5 -8.5t8.5 -19.5zM603 456q0 -9 -6.5 -15t-14.5 -6t-15.5 6t-7.5 15t7 15t15 6t15 -6t7 -15zM600 408q0 -8 -5.5 -13t-12.5 -5t-13 5t-6 13q0 7 5.5 12t12.5 5t13 -5t6 -12zM421 558
q0 -11 -8 -19t-19 -8t-19 8t-8 19t7.5 19t18.5 8t19.5 -8t8.5 -19zM349 530q0 -11 -7 -18.5t-18 -7.5t-19 7.5t-8 18.5t7.5 18.5t18.5 7.5t18.5 -7.5t7.5 -18.5zM545 402q2 -5 -8 -5q-8 0 -10 2q-5 25 -14 57.5t-21 57.5q-42 -9 -85.5 -24.5t-85.5 -35.5t-80.5 -43.5
t-69.5 -48.5q-5 -4 -11 -9.5t-10 -7.5q-2 -1 -6.5 5.5t-3.5 8.5q2 4 9 10.5t11 9.5q37 29 75 52.5t80 43t89.5 35.5t104.5 30q5 -12 10.5 -30t10.5 -37t9 -37.5t6 -33.5zM288 500q0 -10 -6.5 -17t-16.5 -7t-17 7t-7 17q0 9 6.5 16t16.5 7q9 0 16.5 -7t7.5 -16zM1146 320
q-4 -10 -8.5 -23.5t-9.5 -26.5q-2 -8 -5 -15.5t-6 -15.5q4 -17 0.5 -31.5t-8.5 -22.5q-2 -4 -6.5 -9.5t-12.5 -9.5l-43 -101q4 -13 8.5 -34t6.5 -34q1 -13 -6 -22l-57 -71q-48 22 -100.5 37t-105.5 24t-105.5 13t-101.5 4q-47 0 -102.5 -4t-111.5 -13.5t-108 -24t-93 -35.5
q-10 8 -21.5 18.5t-22.5 19.5l-26 21q-8 8 -10 15q-1 2 -1 5.5v5.5q0 5 1 17t2.5 25t2.5 24.5t1 17.5l-30 96q-4 2 -7.5 4.5t-5.5 5.5q-14 13 -17.5 33.5t6.5 39.5l-23 67q15 5 41.5 11.5t44.5 9.5q-3 -8 -8 -21.5t-10.5 -27.5t-9 -25t-3.5 -13q0 -5 2 -3q13 3 30.5 18.5
t26.5 27.5l25 -126q-11 9 -23 14t-28 10q-5 1 -8 1.5t-5 0.5q6 -21 15.5 -40.5t24 -34.5t33.5 -24t43 -9q18 0 35.5 6t32 17t23 27.5t8.5 36.5q0 19 -12.5 37t-33.5 18q-26 0 -37 -15t-11 -39q0 -11 3 -23q-25 4 -35.5 26t-10.5 44q0 35 21.5 60t58.5 25q14 0 22.5 -4
t19.5 -12q-11 17 -14.5 31t-3.5 34q0 21 8.5 40t19.5 35q26 -18 39.5 -41t13.5 -55q0 -11 -2.5 -21t-5.5 -21q12 12 27.5 22.5t33.5 10.5q25 0 42.5 -21t17.5 -45q0 -40 -38 -63q1 1 1 6q0 18 -12 31.5t-32 13.5t-30.5 -14.5t-10.5 -33.5q0 -18 9.5 -32t24 -24t32 -15
t32.5 -5q20 0 40.5 5t37 16t26.5 28.5t10 42.5q0 5 -0.5 8.5t-1.5 8.5q-14 -6 -31.5 -14t-33.5 -16l-4 122q18 -12 32 -21t30 -17q4 -2 3 3q-7 25 -15.5 45t-18.5 43h116q-12 -26 -19.5 -49.5t-12.5 -39.5q-2 -6 2 -4q14 8 31 19t31 22l-3 -123q-16 9 -30 15.5t-31 14.5v-18
q0 -45 24.5 -69t67.5 -24q18 0 35 5t31 14.5t22.5 24t8.5 34.5q0 17 -10.5 29.5t-28.5 12.5q-15 0 -25.5 -14t-15.5 -25q-11 11 -18 25t-7 29q0 29 14.5 49t46.5 20q17 0 32.5 -12t26.5 -24q-3 18 -3 35q0 32 15 57t38 43q13 -16 20.5 -33t7.5 -37q0 -22 -6.5 -42t-17.5 -39
q11 10 24 18t29 8q26 0 46 -19.5t20 -45.5q0 -14 -6 -28t-16 -26t-22.5 -21.5t-25.5 -13.5q6 7 8.5 20t2.5 21q0 35 -35 35q-21 0 -31 -20t-10 -38q0 -38 21 -54t53 -24q14 -5 28 -3q49 2 73 29.5t38 84.5q-19 -7 -36 -13t-35 -16q8 29 17.5 66.5t17.5 64.5q11 -13 23 -26
t25 -24q5 -5 5 4l-3 33q-2 14 -3.5 27.5t-3.5 23.5q22 -3 42.5 -7.5t36.5 -11.5zM230 465q0 -9 -6 -15t-14 -6t-14.5 6t-6.5 15q0 8 6 14t14 6t14.5 -6t6.5 -14zM181 429q0 -8 -6 -14t-14 -6t-14 6t-6 14t5.5 14t13.5 6t14.5 -6t6.5 -14zM139 390q0 -7 -5 -12t-12 -5t-12 5
t-5 12t4.5 12t11.5 5t12.5 -5t5.5 -12zM968 -113q0 -8 -13 -12q-86 -33 -168.5 -43.5t-178.5 -10.5q-107 0 -203.5 11.5t-196.5 45.5q-11 3 -11 9q0 5 10 9q42 17 90 28.5t98 19t99 11t93 3.5q40 0 87.5 -3t96 -10t96 -18.5t86.5 -27.5q15 -5 15 -12zM1103 223q0 4 -1.5 8.5
t-6.5 4.5t-9 -4.5t-7 -10.5t-4.5 -12.5t-1.5 -10.5t1.5 -8.5t6.5 -4.5t9 4.5t7 10.5t4.5 12.5t1.5 10.5zM624 619q-2 12 -10.5 20t-20.5 13q-1 -2 -0.5 -8t0.5 -14v-19q16 -2 31 8zM572 611l-1 41q-26 -8 -33 -34q13 -7 34 -7zM618 587q-14 9 -36 9q-9 0 -19 -2t-18 -7
q6 -10 18 -14.5t20 -4.5t19 5.5t16 13.5zM1043 -6q0 5 -3.5 17.5t-7.5 20.5l-31 -31l19 -41q6 9 14.5 19t8.5 15zM956 39q0 8 -6 13.5t-14 5.5q-19 0 -19 -19q0 -8 6 -14t14 -6t13.5 6t5.5 14zM940 -15q0 8 -6.5 14t-14.5 6t-14 -6t-6 -14t6.5 -14t14.5 -6t14 6t6 14z
M864 36q3 20 -13 36t-42 21q-26 4 -46.5 -6.5t-23.5 -30.5q-3 -19 13 -35t42 -21t46.5 6t23.5 30zM599 263q0 7 -5 12t-13 5q-7 0 -11.5 -5t-4.5 -12t5 -12t12 -5t12 5t5 12zM699 81q0 8 -6 13.5t-14 5.5q-19 0 -19 -19q0 -8 6 -14t14 -6t13.5 6t5.5 14zM693 25q0 8 -6.5 14
t-14.5 6q-9 0 -14.5 -6t-5.5 -14q0 -9 6 -15t14 -6q9 0 15 6t6 15zM612 69l-14 22q-5 8 -10.5 15.5t-7.5 7.5q-3 0 -8 -7.5t-10 -15.5l-12 -22l13 -23q5 -9 10 -16t8 -7t8 7t10 16zM499 81q0 8 -6 13.5t-14 5.5q-19 0 -19 -19q0 -8 6 -14t14 -6t13.5 6t5.5 14zM506 24
q0 8 -6.5 14t-14.5 6t-14 -6t-6 -14q0 -9 6.5 -15t14.5 -6t14 6t6 15zM415 57q-3 19 -23 30t-46 6q-26 -4 -42 -20.5t-13 -35.5q3 -20 23 -30.5t46 -6.5q26 5 42.5 21t12.5 36zM82 202q0 4 -2 10.5t-5 12.5t-7.5 10.5t-8.5 4.5q-5 0 -6 -6t-1 -10t1.5 -10t4.5 -12t7 -10
t9 -4t6.5 5t1.5 9zM230 36q0 8 -6 14t-14 6t-13.5 -6t-5.5 -14t6 -13.5t14 -5.5q19 0 19 19zM250 -17q0 8 -6.5 14t-14.5 6t-14 -6t-6 -14t6.5 -14t14.5 -6t14 6t6 14zM148 1l-33 27q-2 -11 -3.5 -25t-1.5 -16q0 -5 12.5 -15.5t22.5 -18.5q3 9 3 28v20z" />
    <glyph glyph-name="uni00B2" unicode="&#xb2;" horiz-adv-x="435" 
d="M40 326l199 209q12 13 25.5 28.5t25 32t18.5 34t7 34.5q0 19 -8 34t-21 25t-30.5 15.5t-35.5 5.5q-27 0 -57.5 -15.5t-54.5 -47.5l-50 51q38 48 78.5 65.5t88.5 17.5q31 0 60.5 -9.5t52.5 -28t37 -45t14 -60.5q0 -47 -25.5 -86t-63.5 -81l-100 -107h195v-72h-355z" />
    <glyph glyph-name="uni00B3" unicode="&#xb3;" horiz-adv-x="447" 
d="M407 472q0 -34 -13.5 -62t-37 -47.5t-55 -30.5t-67.5 -11q-113 0 -194 100l50 51q29 -38 66.5 -59.5t72.5 -21.5q19 0 37.5 4.5t32.5 14.5t23 25.5t9 37.5q0 21 -10.5 35.5t-28 23.5t-41.5 13t-51 4v55q24 0 46.5 3.5t39 12t26.5 22.5t10 35q0 18 -8 31.5t-21 23
t-29.5 14t-32.5 4.5q-77 0 -126 -70l-50 50q37 48 80.5 68.5t97.5 20.5q34 0 64 -10t52.5 -27.5t35 -42t12.5 -53.5q0 -26 -12.5 -56t-44.5 -50q37 -18 52 -48.5t15 -59.5z" />
    <glyph glyph-name="acute" unicode="&#xb4;" horiz-adv-x="557" 
d="M435 843l-144 -193h-66l90 193h120z" />
    <glyph glyph-name="mu" unicode="&#xb5;" horiz-adv-x="637" 
d="M484 0v81q-22 -23 -44 -41t-46.5 -30.5t-54.5 -19t-67 -6.5q-66 0 -128 47v-282h-94v829h95v-339q0 -33 10.5 -63.5t31.5 -53t51.5 -36t71.5 -13.5q48 0 93.5 22.5t80.5 59.5v423h93v-578h-93z" />
    <glyph glyph-name="paragraph" unicode="&#xb6;" horiz-adv-x="561" 
d="M581 747h-67v-1025h-72v1025h-64v-1025h-78v617q-39 3 -61.5 6t-41.5 10q-35 11 -64 33t-49.5 51.5t-32 65t-11.5 74.5q0 64 31 115t85 77q67 29 168 29h257v-53z" />
    <glyph glyph-name="periodcentered" unicode="&#xb7;" horiz-adv-x="218" 
d="M163 325h-103v103h103v-103z" />
    <glyph glyph-name="cedilla" unicode="&#xb8;" horiz-adv-x="515" 
d="M381 -156q0 -17 -7 -34t-20.5 -31.5t-33 -23.5t-44.5 -9t-45.5 7.5t-35.5 20.5l7 34q8 -5 19 -8.5t21 -3.5q26 0 43 15.5t17 35.5q0 23 -16.5 39t-43.5 16q-6 0 -12.5 -1t-11.5 -2l19 97h52l-13 -55q51 -6 78 -34t27 -63z" />
    <glyph glyph-name="uni00B9" unicode="&#xb9;" horiz-adv-x="230" 
d="M190 329h-71v398l-79 -32v66l150 60v-492z" />
    <glyph glyph-name="ordmasculine" unicode="&#xba;" horiz-adv-x="452" 
d="M211 430q-39 0 -74 15t-61 41.5t-41 61.5t-15 75t15 75t41 61t61 41t74 15t74 -15t61 -41t41 -61t15 -75t-15 -75t-41 -61.5t-61 -41.5t-74 -15zM211 743q-24 0 -44.5 -9.5t-36 -25.5t-24.5 -38t-9 -47q0 -26 9 -47.5t24.5 -37.5t36 -25t44.5 -9t44.5 9t35.5 25t24 37.5
t9 47.5q0 25 -9 47t-24 38t-35.5 25.5t-44.5 9.5z" />
    <glyph glyph-name="guillemotright" unicode="&#xbb;" horiz-adv-x="506" 
d="M486 273l-180 -273h-99l180 273l-180 272h99zM297 273l-178 -273h-99l180 273l-180 272h99z" />
    <glyph glyph-name="onequarter" unicode="&#xbc;" horiz-adv-x="768" 
d="M728 110h-69v-110h-74v110h-237v49l246 321h65v-304h69v-66zM661 799l-536 -845h-85l536 845h85zM216 329h-71v398l-79 -32v66l150 60v-492zM585 176v192l-148 -192h148z" />
    <glyph glyph-name="onehalf" unicode="&#xbd;" horiz-adv-x="856" 
d="M661 799l-536 -845h-85l536 845h85zM216 329h-71v398l-79 -32v66l150 60v-492zM461 0l199 209q12 13 25.5 28.5t24.5 32.5t18.5 34t7.5 34q0 19 -8 34t-21 25t-30.5 15.5t-35.5 5.5q-27 0 -58 -15.5t-54 -48.5l-50 51q38 48 78.5 65.5t88.5 17.5q31 0 60.5 -9.5t52.5 -28
t37 -45t14 -60.5q0 -46 -25.5 -85t-64.5 -81l-99 -107h195v-72h-355z" />
    <glyph glyph-name="threequarters" unicode="&#xbe;" horiz-adv-x="900" 
d="M860 110h-69v-110h-74v110h-238v49l246 321h66v-304h69v-66zM793 799l-536 -845h-85l536 845h85zM407 472q0 -34 -13.5 -62t-37 -47.5t-55 -30.5t-67.5 -11q-113 0 -194 100l50 51q29 -38 66.5 -59.5t72.5 -21.5q19 0 37.5 4.5t32.5 14.5t23 25.5t9 37.5q0 21 -10.5 35.5
t-28 23.5t-41.5 13t-51 4v55q24 0 46.5 3.5t39 12t26.5 22.5t10 35q0 18 -8 31.5t-21 23t-29.5 14t-32.5 4.5q-77 0 -126 -70l-50 50q37 48 80.5 68.5t97.5 20.5q34 0 64 -10t52.5 -27.5t35 -42t12.5 -53.5q0 -26 -12.5 -56t-44.5 -50q37 -18 52 -48.5t15 -59.5zM717 176
v192l-148 -192h148z" />
    <glyph glyph-name="questiondown" unicode="&#xbf;" horiz-adv-x="564" 
d="M40 223q0 72 42 125.5t106 85.5l60 29q19 9 33.5 18.5t24 23t14 32.5t4.5 46v62h99v-68q0 -41 -8 -70.5t-22 -50.5t-34 -35.5t-44 -24.5l-44 -20q-72 -32 -102 -70.5t-30 -81.5q0 -27 13 -51t35 -41.5t52 -27.5t65 -10q42 0 84.5 17t75.5 48l60 -70q-48 -46 -106.5 -67.5
t-124.5 -21.5q-56 0 -102 17.5t-80 47.5t-52.5 70.5t-18.5 87.5zM324 816h99v-99h-99v99z" />
    <glyph glyph-name="Agrave" unicode="&#xc0;" horiz-adv-x="859" 
d="M859 0h-112l-75 162h-476l-74 -162h-112l377 800h95zM633 246l-199 433l-200 -433h399zM501 871h-66l-144 193h121z" />
    <glyph glyph-name="Aacute" unicode="&#xc1;" horiz-adv-x="859" 
d="M859 0h-112l-75 162h-476l-74 -162h-112l377 800h95zM633 246l-199 433l-200 -433h399zM574 1064l-144 -193h-66l90 193h120z" />
    <glyph glyph-name="Acircumflex" unicode="&#xc2;" horiz-adv-x="859" 
d="M859 0h-112l-75 162h-476l-74 -162h-112l377 800h95zM633 246l-199 433l-200 -433h399zM603 871h-72l-97 102l-98 -102h-72l119 173h101z" />
    <glyph glyph-name="Atilde" unicode="&#xc3;" horiz-adv-x="859" 
d="M859 0h-112l-75 162h-476l-74 -162h-112l377 800h95zM633 246l-199 433l-200 -433h399zM635 999q-4 -60 -38 -94t-94 -34q-23 0 -43 7t-38.5 15t-36.5 15t-37 7q-18 0 -27 -14t-11 -30h-86q3 58 35.5 93t95.5 35q22 0 42.5 -7t39.5 -15t36.5 -15t32.5 -7q20 0 30 13
t13 31h86z" />
    <glyph glyph-name="Adieresis" unicode="&#xc4;" horiz-adv-x="859" 
d="M859 0h-112l-75 162h-476l-74 -162h-112l377 800h95zM633 246l-199 433l-200 -433h399zM595 871h-90v100h90v-100zM365 871h-90v100h90v-100z" />
    <glyph glyph-name="Aring" unicode="&#xc5;" horiz-adv-x="859" 
d="M859 0h-112l-75 162h-476l-74 -162h-112l377 800h95zM633 246l-200 433l-199 -433h399zM434 870q-24 0 -45.5 9.5t-37.5 25.5t-25.5 37.5t-9.5 45.5q0 25 9.5 46.5t25.5 37.5t37.5 25.5t45.5 9.5t45.5 -9.5t37.5 -25.5t25.5 -37.5t9.5 -46.5q0 -24 -9.5 -45.5
t-25.5 -37.5t-37.5 -25.5t-45.5 -9.5zM434 1051q-26 0 -44.5 -18.5t-18.5 -44.5t18.5 -44t44.5 -18t44.5 18t18.5 44t-18.5 44.5t-44.5 18.5z" />
    <glyph glyph-name="AE" unicode="&#xc6;" horiz-adv-x="1058" 
d="M966 799l9 -83h-399l27 -257h393l8 -81h-393l29 -289h399l9 -89h-354h-141l-17 164h-337l-92 -164h-107l453 800zM483 674l-239 -426h283z" />
    <glyph glyph-name="Ccedilla" unicode="&#xc7;" horiz-adv-x="827" 
d="M589 -156q0 -17 -7 -34t-20.5 -31.5t-33 -23.5t-44.5 -9t-45.5 7.5t-35.5 20.5l7 34q8 -5 19 -8.5t21 -3.5q26 0 43 15.5t17 35.5q0 23 -16.5 39t-43.5 16q-6 0 -12.5 -1t-11.5 -3l17 89q-83 7 -155 41.5t-125 90t-83 127.5t-30 155q0 86 33.5 161.5t92 131.5t137.5 88.5
t169 32.5q97 0 182.5 -41.5t143.5 -116.5l-73 -73q-19 25 -47.5 49t-62 42.5t-70.5 30t-73 11.5q-68 0 -127.5 -25t-104 -67.5t-70 -100t-25.5 -123.5t25.5 -123.5t70 -100.5t104 -67.5t127.5 -24.5q36 0 73.5 11t71.5 30t62.5 44t47.5 52l74 -74q-54 -72 -136 -116.5
t-181 -45.5l-10 -45q51 -6 78 -34t27 -63zM827 132l-116 116z" />
    <glyph glyph-name="Egrave" unicode="&#xc8;" horiz-adv-x="648" 
d="M608 0h-528v800h528v-85h-427v-255h421v-82h-421v-289h427v-89zM413 871h-66l-144 193h121z" />
    <glyph glyph-name="Eacute" unicode="&#xc9;" horiz-adv-x="648" 
d="M608 0h-528v800h528v-85h-427v-255h421v-82h-421v-289h427v-89zM495 1064l-144 -193h-66l90 193h120z" />
    <glyph glyph-name="Ecircumflex" unicode="&#xca;" horiz-adv-x="648" 
d="M608 0h-528v800h528v-85h-427v-255h421v-82h-421v-289h427v-89zM515 871h-72l-97 102l-98 -102h-72l119 173h101z" />
    <glyph glyph-name="Edieresis" unicode="&#xcb;" horiz-adv-x="648" 
d="M608 0h-528v800h528v-85h-427v-255h421v-82h-421v-289h427v-89zM502 871h-90v100h90v-100zM272 871h-90v100h90v-100z" />
    <glyph glyph-name="Igrave" unicode="&#xcc;" horiz-adv-x="255" 
d="M185 0h-105v799h105v-799zM206 871h-66l-144 193h120z" />
    <glyph glyph-name="Iacute" unicode="&#xcd;" horiz-adv-x="255" 
d="M185 0h-105v799h105v-799zM272 1066l-144 -193h-66l90 193h120z" />
    <glyph glyph-name="Icircumflex" unicode="&#xce;" horiz-adv-x="255" 
d="M185 0h-105v799h105v-799zM302 871h-72l-97 102l-98 -102h-72l119 173h101z" />
    <glyph glyph-name="Idieresis" unicode="&#xcf;" horiz-adv-x="255" 
d="M185 0h-105v799h105v-799zM293 871h-90v100h90v-100zM63 871h-90v100h90v-100z" />
    <glyph glyph-name="Eth" unicode="&#xd0;" horiz-adv-x="831" 
d="M791 400q0 -84 -28 -157t-78.5 -127t-119.5 -85t-150 -31h-329v359h-66v89h66v352l329 -1q82 0 151 -31t119 -85t78 -126.5t28 -156.5zM683 405q0 61 -23 118t-65 100.5t-100 69.5t-127 26h-177v-271h135v-89h-135v-269h177q69 0 126.5 24.5t99.5 67t65.5 100t23.5 123.5
z" />
    <glyph glyph-name="Ntilde" unicode="&#xd1;" horiz-adv-x="815" 
d="M745 0h-98l-469 642v-642h-98v800h99l468 -639v639h98v-800zM619 999q-4 -60 -38 -94t-94 -34q-23 0 -43 7t-38.5 15t-36.5 15t-37 7q-18 0 -27 -14t-11 -30h-86q3 58 35.5 93t95.5 35q22 0 42.5 -7t39.5 -15t36.5 -15t32.5 -7q20 0 30 13t13 31h86z" />
    <glyph glyph-name="Ograve" unicode="&#xd2;" horiz-adv-x="939" 
d="M899 401q0 -86 -33.5 -162t-91 -132.5t-135 -89t-164.5 -32.5q-88 0 -165.5 32.5t-135 89t-91 132t-33.5 162.5t33.5 162.5t91 131.5t135 88t165.5 32q87 0 164.5 -32.5t135 -88.5t91 -131.5t33.5 -161.5zM795 401q0 65 -25 122.5t-68.5 100t-102 67.5t-124.5 25
q-67 0 -125.5 -25t-102 -67.5t-68.5 -100t-25 -122.5q0 -66 25 -123.5t68.5 -100.5t102 -68t125.5 -25q66 0 124.5 25t102 68t68.5 100.5t25 123.5zM544 871h-66l-144 193h121z" />
    <glyph glyph-name="Oacute" unicode="&#xd3;" horiz-adv-x="939" 
d="M899 401q0 -86 -33.5 -162t-91 -132.5t-135 -89t-164.5 -32.5q-88 0 -165.5 32.5t-135 89t-91 132t-33.5 162.5t33.5 162.5t91 131.5t135 88t165.5 32q87 0 164.5 -32.5t135 -88.5t91 -131.5t33.5 -161.5zM795 401q0 65 -25 122.5t-68.5 100t-102 67.5t-124.5 25
q-67 0 -125.5 -25t-102 -67.5t-68.5 -100t-25 -122.5q0 -66 25 -123.5t68.5 -100.5t102 -68t125.5 -25q66 0 124.5 25t102 68t68.5 100.5t25 123.5zM614 1064l-144 -193h-66l90 193h120z" />
    <glyph glyph-name="Ocircumflex" unicode="&#xd4;" horiz-adv-x="939" 
d="M899 401q0 -86 -33.5 -162t-91 -132.5t-135 -89t-164.5 -32.5q-88 0 -165.5 32.5t-135 89t-91 132t-33.5 162.5t33.5 162.5t91 131.5t135 88t165.5 32q87 0 164.5 -32.5t135 -88.5t91 -131.5t33.5 -161.5zM795 401q0 65 -25 122.5t-68.5 100t-102 67.5t-124.5 25
q-67 0 -125.5 -25t-102 -67.5t-68.5 -100t-25 -122.5q0 -66 25 -123.5t68.5 -100.5t102 -68t125.5 -25q66 0 124.5 25t102 68t68.5 100.5t25 123.5zM644 871h-72l-97 102l-98 -102h-72l119 173h101z" />
    <glyph glyph-name="Otilde" unicode="&#xd5;" horiz-adv-x="939" 
d="M899 401q0 -86 -33.5 -162t-91 -132.5t-135 -89t-164.5 -32.5q-88 0 -165.5 32.5t-135 89t-91 132t-33.5 162.5t33.5 162.5t91 131.5t135 88t165.5 32q87 0 164.5 -32.5t135 -88.5t91 -131.5t33.5 -161.5zM795 401q0 65 -25 122.5t-68.5 100t-102 67.5t-124.5 25
q-67 0 -125.5 -25t-102 -67.5t-68.5 -100t-25 -122.5q0 -66 25 -123.5t68.5 -100.5t102 -68t125.5 -25q66 0 124.5 25t102 68t68.5 100.5t25 123.5zM680 999q-4 -60 -38 -94t-94 -34q-23 0 -43 7t-38.5 15t-36.5 15t-37 7q-18 0 -27 -14t-11 -30h-86q3 58 35.5 93t95.5 35
q22 0 42.5 -7t39.5 -15t36.5 -15t32.5 -7q20 0 30 13t13 31h86z" />
    <glyph glyph-name="Odieresis" unicode="&#xd6;" horiz-adv-x="939" 
d="M899 401q0 -86 -33.5 -162t-91 -132.5t-135 -89t-164.5 -32.5q-88 0 -165.5 32.5t-135 89t-91 132t-33.5 162.5t33.5 162.5t91 131.5t135 88t165.5 32q87 0 164.5 -32.5t135 -88.5t91 -131.5t33.5 -161.5zM795 401q0 65 -25 122.5t-68.5 100t-102 67.5t-124.5 25
q-67 0 -125.5 -25t-102 -67.5t-68.5 -100t-25 -122.5q0 -66 25 -123.5t68.5 -100.5t102 -68t125.5 -25q66 0 124.5 25t102 68t68.5 100.5t25 123.5zM631 871h-90v100h90v-100zM401 871h-90v100h90v-100z" />
    <glyph glyph-name="multiply" unicode="&#xd7;" horiz-adv-x="629" 
d="M569 194l-68 -68l-182 182l-171 -172l-68 67l172 173l-182 181l67 68l182 -182l173 172l67 -67l-171 -172z" />
    <glyph glyph-name="Oslash" unicode="&#xd8;" horiz-adv-x="939" 
d="M257 162l381 517q-38 22 -79 32t-84 10q-66 0 -124.5 -25.5t-102.5 -69t-69.5 -101.5t-25.5 -124q0 -69 26.5 -130t77.5 -109zM692 638l-380 -516q39 -20 78.5 -31.5t84.5 -11.5q66 0 124.5 25.5t102 69.5t69 102.5t25.5 124.5t-29 127.5t-75 109.5zM199 84
q-72 61 -110.5 142t-38.5 175q0 87 34 162.5t92 131t135 87.5t164 32q60 0 113.5 -14t105.5 -44l50 67h85l-79 -107q70 -61 109.5 -141t39.5 -174q0 -87 -34 -163t-92 -132t-135 -88t-163 -32q-61 0 -113.5 14.5t-106.5 44.5l-50 -68h-85z" />
    <glyph glyph-name="Ugrave" unicode="&#xd9;" horiz-adv-x="831" 
d="M781 800v-436q0 -81 -24 -150t-69.5 -119.5t-111.5 -79.5t-149 -29q-82 0 -148 28.5t-112.5 78.5t-71.5 118t-25 148v441h105v-442q0 -54 16 -103.5t47 -87t77.5 -59.5t108.5 -22q64 0 111 21t78 57.5t46.5 85.5t15.5 105v445h106zM498 871h-66l-144 193h121z" />
    <glyph glyph-name="Uacute" unicode="&#xda;" horiz-adv-x="831" 
d="M781 800v-436q0 -81 -24 -150t-69.5 -119.5t-111.5 -79.5t-149 -29q-82 0 -148 28.5t-112.5 78.5t-71.5 118t-25 148v441h105v-442q0 -54 16 -103.5t47 -87t77.5 -59.5t108.5 -22q64 0 111 21t78 57.5t46.5 85.5t15.5 105v445h106zM559 1064l-144 -193h-66l90 193h120z
" />
    <glyph glyph-name="Ucircumflex" unicode="&#xdb;" horiz-adv-x="831" 
d="M781 800v-436q0 -81 -24 -150t-69.5 -119.5t-111.5 -79.5t-149 -29q-82 0 -148 28.5t-112.5 78.5t-71.5 118t-25 148v441h105v-442q0 -54 16 -103.5t47 -87t77.5 -59.5t108.5 -22q64 0 111 21t78 57.5t46.5 85.5t15.5 105v445h106zM595 871h-72l-97 102l-98 -103l-72 1
l119 173h101z" />
    <glyph glyph-name="Udieresis" unicode="&#xdc;" horiz-adv-x="831" 
d="M781 800v-436q0 -81 -24 -150t-69.5 -119.5t-111.5 -79.5t-149 -29q-82 0 -148 28.5t-112.5 78.5t-71.5 118t-25 148v441h105v-442q0 -54 16 -103.5t47 -87t77.5 -59.5t108.5 -22q64 0 111 21t78 57.5t46.5 85.5t15.5 105v445h106zM584 871h-90v100h90v-100zM354 871h-90
v100h90v-100z" />
    <glyph glyph-name="Yacute" unicode="&#xdd;" horiz-adv-x="753" 
d="M536 1064l-144 -193h-66l90 193h120zM748 799l-322 -467v-333h-105v334l-306 466h122l237 -381l254 381h120z" />
    <glyph glyph-name="Thorn" unicode="&#xde;" horiz-adv-x="628" 
d="M608 400q0 -53 -21 -96.5t-57.5 -75t-86 -48.5t-106.5 -17h-153v-164h-104v800h104v-161h153q57 0 106.5 -17.5t86 -49t57.5 -75.5t21 -96zM503 403q0 43 -14 71.5t-39 46t-59 25t-74 7.5h-133v-306h133q40 0 74 8.5t59 27t39 48t14 72.5z" />
    <glyph glyph-name="germandbls" unicode="&#xdf;" horiz-adv-x="567" 
d="M303 -15q-16 0 -36 3t-35 10v79q14 -5 31.5 -7.5t30.5 -2.5q73 0 110 46t37 128q0 45 -16.5 77.5t-44.5 53t-65.5 28.5t-79.5 5v75q162 9 162 144q0 26 -6 50.5t-20 43.5t-36.5 30.5t-55.5 11.5q-66 0 -94.5 -45.5t-28.5 -142.5l1 -571h-97v586q0 133 56 194t162 61
q50 0 90 -17t68 -45.5t43 -65t15 -76.5q0 -60 -26.5 -108t-94.5 -77q78 -25 121 -81t43 -138q0 -121 -59.5 -185t-174.5 -64z" />
    <glyph glyph-name="agrave" unicode="&#xe0;" horiz-adv-x="580" 
d="M349 650h-66l-144 193h121zM530 0h-96v46q-42 -32 -93.5 -47t-102.5 -15t-90 13.5t-65.5 37t-39.5 55t-13 66.5q0 94 75.5 144t228.5 50h101q1 34 -8.5 64.5t-30 52.5t-51 35t-70.5 13q-45 0 -87.5 -16.5t-76.5 -48.5l-57 57q48 42 103.5 64t121.5 22q57 0 103.5 -17.5
t79 -50.5t50.5 -80t18 -107v-338zM433 122v161l-99 1q-42 0 -80 -6.5t-66.5 -21t-45 -38t-16.5 -56.5q0 -26 12 -45t31.5 -31t44.5 -18t51 -6q52 0 92.5 14.5t75.5 45.5z" />
    <glyph glyph-name="aacute" unicode="&#xe1;" horiz-adv-x="580" 
d="M435 843l-144 -193h-66l90 193h120zM530 0h-96v46q-42 -32 -93.5 -47t-102.5 -15t-90 13.5t-65.5 37t-39.5 55t-13 66.5q0 94 75.5 144t228.5 50h101q1 34 -8.5 64.5t-30 52.5t-51 35t-70.5 13q-45 0 -87.5 -16.5t-76.5 -48.5l-57 57q48 42 103.5 64t121.5 22
q57 0 103.5 -17.5t79 -50.5t50.5 -80t18 -107v-338zM433 122v161l-99 1q-42 0 -80 -6.5t-66.5 -21t-45 -38t-16.5 -56.5q0 -26 12 -45t31.5 -31t44.5 -18t51 -6q52 0 92.5 14.5t75.5 45.5z" />
    <glyph glyph-name="acircumflex" unicode="&#xe2;" horiz-adv-x="580" 
d="M454 650h-72l-97 102l-99 -102h-71l119 173h101zM530 0h-96v46q-42 -32 -93.5 -47t-102.5 -15t-90 13.5t-65.5 37t-39.5 55t-13 66.5q0 94 75.5 144t228.5 50h101q1 34 -8.5 64.5t-30 52.5t-51 35t-70.5 13q-45 0 -87.5 -16.5t-76.5 -48.5l-57 57q48 42 103.5 64
t121.5 22q57 0 103.5 -17.5t79 -50.5t50.5 -80t18 -107v-338zM433 122v161l-99 1q-42 0 -80 -6.5t-66.5 -21t-45 -38t-16.5 -56.5q0 -26 12 -45t31.5 -31t44.5 -18t51 -6q52 0 92.5 14.5t75.5 45.5z" />
    <glyph glyph-name="atilde" unicode="&#xe3;" horiz-adv-x="580" 
d="M498 778q-4 -60 -38 -94t-94 -34q-23 0 -43 7t-38.5 15t-36.5 15t-37 7q-18 0 -27 -14t-11 -30h-86q3 58 35.5 93t95.5 35q22 0 42.5 -7t39.5 -15t36.5 -15t32.5 -7q20 0 30 13t13 31h86zM530 0h-96v46q-42 -32 -93.5 -47t-102.5 -15t-90 13.5t-65.5 37t-39.5 55
t-13 66.5q0 94 75.5 144t228.5 50h101q1 34 -8.5 64.5t-30 52.5t-51 35t-70.5 13q-45 0 -87.5 -16.5t-76.5 -48.5l-57 57q48 42 103.5 64t121.5 22q57 0 103.5 -17.5t79 -50.5t50.5 -80t18 -107v-338zM433 122v161l-99 1q-42 0 -80 -6.5t-66.5 -21t-45 -38t-16.5 -56.5
q0 -26 12 -45t31.5 -31t44.5 -18t51 -6q52 0 92.5 14.5t75.5 45.5z" />
    <glyph glyph-name="adieresis" unicode="&#xe4;" horiz-adv-x="580" 
d="M442 650h-90v100h90v-100zM212 650h-90v100h90v-100zM530 0h-96v46q-42 -32 -93.5 -47t-102.5 -15t-90 13.5t-65.5 37t-39.5 55t-13 66.5q0 94 75.5 144t228.5 50h101q1 34 -8.5 64.5t-30 52.5t-51 35t-70.5 13q-45 0 -87.5 -16.5t-76.5 -48.5l-57 57q48 42 103.5 64
t121.5 22q57 0 103.5 -17.5t79 -50.5t50.5 -80t18 -107v-338zM433 122v161l-99 1q-42 0 -80 -6.5t-66.5 -21t-45 -38t-16.5 -56.5q0 -26 12 -45t31.5 -31t44.5 -18t51 -6q52 0 92.5 14.5t75.5 45.5z" />
    <glyph glyph-name="aring" unicode="&#xe5;" horiz-adv-x="580" 
d="M287 650q-24 0 -45.5 9.5t-37.5 25.5t-25.5 37.5t-9.5 45.5q0 25 9.5 46.5t25.5 37.5t37.5 25.5t45.5 9.5t45.5 -9.5t37.5 -25.5t25.5 -37.5t9.5 -46.5q0 -24 -9.5 -45.5t-25.5 -37.5t-37.5 -25.5t-45.5 -9.5zM287 831q-26 0 -44.5 -18.5t-18.5 -44.5t18.5 -44t44.5 -18
t44.5 18t18.5 44t-18.5 44.5t-44.5 18.5zM530 0h-96v46q-42 -32 -93.5 -47t-102.5 -15t-90 13.5t-65.5 37t-39.5 55t-13 66.5q0 94 75.5 144t228.5 50h101q1 34 -8.5 64.5t-30 52.5t-51 35t-70.5 13q-45 0 -87.5 -16.5t-76.5 -48.5l-57 57q48 42 103.5 64t121.5 22
q57 0 103.5 -17.5t79 -50.5t50.5 -80t18 -107v-338zM433 122v161l-99 1q-42 0 -80 -6.5t-66.5 -21t-45 -38t-16.5 -56.5q0 -26 12 -45t31.5 -31t44.5 -18t51 -6q52 0 92.5 14.5t75.5 45.5z" />
    <glyph glyph-name="ae" unicode="&#xe6;" horiz-adv-x="1067" 
d="M433 122v161l-98 1q-42 0 -80 -6.5t-66.5 -21.5t-45.5 -38.5t-17 -56.5q0 -27 13 -46t33.5 -30.5t45 -16.5t47.5 -5q52 0 92.5 14t75.5 45zM1037 290q0 -9 -0.5 -19t-1.5 -18h-520q9 -45 30 -79.5t50 -58t64 -35.5t73 -12q57 0 95.5 22t67.5 51l64 -64
q-46 -45 -100.5 -68.5t-129.5 -23.5q-58 0 -108.5 18.5t-90.5 51.5v-56h-96v47q-42 -32 -93.5 -47t-102.5 -15t-90 13.5t-65.5 37t-39.5 55t-13 66.5q0 194 304 194h102q1 35 -8.5 65.5t-30 52.5t-51 34.5t-71.5 12.5q-45 0 -87.5 -16.5t-76.5 -48.5l-57 57q48 42 103.5 64
t121.5 22q72 0 127 -28t87 -80q42 51 102 79.5t132 28.5q62 0 118.5 -22.5t99 -62.5t67.5 -96t25 -122zM939 329q-8 46 -29.5 80t-50.5 56.5t-63 33.5t-66 11q-35 0 -69.5 -11.5t-64 -34t-51 -56.5t-29.5 -79h423z" />
    <glyph glyph-name="ccedilla" unicode="&#xe7;" horiz-adv-x="591" 
d="M461 -156q0 -17 -7 -34t-20.5 -31.5t-33 -23.5t-44.5 -9t-45.5 7.5t-35.5 20.5l7 34q8 -5 19 -8.5t21 -3.5q26 0 43 15.5t17 35.5q0 23 -16.5 39t-43.5 16q-6 0 -12.5 -1t-11.5 -3l17 89q-59 6 -109 31t-87 65t-58 92.5t-21 113.5q0 64 24 119.5t66 96.5t98.5 64.5
t122.5 23.5q65 0 125.5 -26t98.5 -71l-62 -61q-22 29 -66 50.5t-95 21.5q-44 0 -83.5 -17t-68.5 -46t-46 -69t-17 -86t16.5 -86t45.5 -69t68.5 -46t84.5 -17q48 0 91.5 19.5t75.5 58.5l62 -61q-38 -43 -93 -70.5t-121 -31.5l-11 -45q51 -6 78 -34t27 -63z" />
    <glyph glyph-name="egrave" unicode="&#xe8;" 
d="M657 290q0 -9 -0.5 -19t-1.5 -18h-520q9 -45 30 -79.5t50 -58t64 -35.5t73 -12q57 0 95.5 22t67.5 51l64 -64q-46 -45 -100.5 -68.5t-129.5 -23.5q-66 0 -122.5 24t-98 65t-65 96.5t-23.5 118.5t24 118.5t65.5 96.5t97.5 65t120 24q62 0 118.5 -22.5t99 -62.5t67.5 -96
t25 -122zM559 329q-8 46 -29.5 80t-50.5 56.5t-63 33.5t-66 11q-35 0 -69.5 -11.5t-64 -34t-51 -56.5t-29.5 -79h423zM412 650h-66l-144 193h121z" />
    <glyph glyph-name="eacute" unicode="&#xe9;" 
d="M657 290q0 -9 -0.5 -19t-1.5 -18h-520q9 -45 30 -79.5t50 -58t64 -35.5t73 -12q57 0 95.5 22t67.5 51l64 -64q-46 -45 -100.5 -68.5t-129.5 -23.5q-66 0 -122.5 24t-98 65t-65 96.5t-23.5 118.5t24 118.5t65.5 96.5t97.5 65t120 24q62 0 118.5 -22.5t99 -62.5t67.5 -96
t25 -122zM559 329q-8 46 -29.5 80t-50.5 56.5t-63 33.5t-66 11q-35 0 -69.5 -11.5t-64 -34t-51 -56.5t-29.5 -79h423zM486 843l-144 -193h-66l90 193h120z" />
    <glyph glyph-name="ecircumflex" unicode="&#xea;" 
d="M657 290q0 -9 -0.5 -19t-1.5 -18h-520q9 -45 30 -79.5t50 -58t64 -35.5t73 -12q57 0 95.5 22t67.5 51l64 -64q-46 -45 -100.5 -68.5t-129.5 -23.5q-66 0 -122.5 24t-98 65t-65 96.5t-23.5 118.5t24 118.5t65.5 96.5t97.5 65t120 24q62 0 118.5 -22.5t99 -62.5t67.5 -96
t25 -122zM559 329q-8 46 -29.5 80t-50.5 56.5t-63 33.5t-66 11q-35 0 -69.5 -11.5t-64 -34t-51 -56.5t-29.5 -79h423zM516 650h-72l-97 102l-99 -102h-71l119 173h101z" />
    <glyph glyph-name="edieresis" unicode="&#xeb;" 
d="M657 290q0 -9 -0.5 -19t-1.5 -18h-520q9 -45 30 -79.5t50 -58t64 -35.5t73 -12q57 0 95.5 22t67.5 51l64 -64q-46 -45 -100.5 -68.5t-129.5 -23.5q-66 0 -122.5 24t-98 65t-65 96.5t-23.5 118.5t24 118.5t65.5 96.5t97.5 65t120 24q62 0 118.5 -22.5t99 -62.5t67.5 -96
t25 -122zM559 329q-8 46 -29.5 80t-50.5 56.5t-63 33.5t-66 11q-35 0 -69.5 -11.5t-64 -34t-51 -56.5t-29.5 -79h423zM505 650h-90v100h90v-100zM275 650h-90v100h90v-100z" />
    <glyph glyph-name="igrave" unicode="&#xec;" horiz-adv-x="233" 
d="M160 0h-97v579h97v-579zM189 650h-66l-144 193h121z" />
    <glyph glyph-name="iacute" unicode="&#xed;" horiz-adv-x="233" 
d="M160 0h-97v579h97v-579zM250 843l-144 -193h-66l90 193h120z" />
    <glyph glyph-name="icircumflex" unicode="&#xee;" horiz-adv-x="233" 
d="M160 0h-97v579h97v-579zM283 650h-72l-97 102l-98 -102h-72l119 173h101z" />
    <glyph glyph-name="idieresis" unicode="&#xef;" horiz-adv-x="233" 
d="M160 0h-97v579h97v-579zM271 650h-90v100h90v-100zM41 650h-90v100h90v-100z" />
    <glyph glyph-name="eth" unicode="&#xf0;" horiz-adv-x="674" 
d="M644 306q0 -84 -25 -145t-67.5 -100t-98.5 -57.5t-117 -18.5q-65 0 -119 21.5t-93.5 56.5t-61.5 80t-22 92q0 55 23.5 102.5t64 81.5t94.5 53.5t115 19.5q39 0 84 -13.5t90 -42.5q-8 39 -24 73.5t-37 63t-44 50t-45 35.5l-128 -89l-44 60l104 74q-30 17 -61 29.5
t-57 17.5l61 61q37 -9 132 -56l101 72l43 -61l-78 -55q48 -34 86.5 -79t66 -97.5t42.5 -110.5t15 -118zM531 243q0 36 -16 65.5t-42.5 50t-61.5 32t-72 11.5q-40 0 -75.5 -12t-61.5 -33.5t-41.5 -50.5t-15.5 -63q0 -35 15.5 -64t42 -50t62 -32.5t74.5 -11.5t73.5 11.5
t61 32.5t42 50t15.5 64z" />
    <glyph glyph-name="ntilde" unicode="&#xf1;" horiz-adv-x="626" 
d="M576 0h-96v340q0 85 -38.5 126t-123.5 41q-17 0 -39 -6t-44.5 -15.5t-43 -22.5t-34.5 -28v-435h-97v578h97v-70q16 16 38 31.5t47.5 27.5t53.5 19t55 7q106 0 165.5 -62t59.5 -183v-348zM532 778q-4 -60 -38 -94t-94 -34q-23 0 -43 7t-38.5 15t-36.5 15t-37 7
q-18 0 -27 -14t-11 -30h-86q3 58 35.5 93t95.5 35q22 0 42.5 -7t39.5 -15t36.5 -15t32.5 -7q20 0 30 13t13 31h86z" />
    <glyph glyph-name="ograve" unicode="&#xf2;" 
d="M349 -15q-65 0 -121 23.5t-98 64.5t-66 96.5t-24 119.5q0 63 24 118.5t66 97t98 65t121 23.5q64 0 120.5 -23.5t98 -64t65.5 -96.5t24 -120q0 -65 -24 -120.5t-65.5 -96t-98 -64t-120.5 -23.5zM348 508q-45 0 -84 -16.5t-67.5 -46t-44.5 -69.5t-16 -87t16 -87t44.5 -69.5
t67.5 -46t84 -16.5t84 16.5t67.5 46t44.5 69.5t16 87t-16 87t-44.5 69.5t-67.5 46t-84 16.5zM421 650h-66l-144 193h121z" />
    <glyph glyph-name="oacute" unicode="&#xf3;" 
d="M349 -15q-65 0 -121 23.5t-98 64.5t-66 96.5t-24 119.5q0 63 24 118.5t66 97t98 65t121 23.5q64 0 120.5 -23.5t98 -64t65.5 -96.5t24 -120q0 -65 -24 -120.5t-65.5 -96t-98 -64t-120.5 -23.5zM348 508q-45 0 -84 -16.5t-67.5 -46t-44.5 -69.5t-16 -87t16 -87t44.5 -69.5
t67.5 -46t84 -16.5t84 16.5t67.5 46t44.5 69.5t16 87t-16 87t-44.5 69.5t-67.5 46t-84 16.5zM486 843l-144 -193h-66l90 193h120z" />
    <glyph glyph-name="ocircumflex" unicode="&#xf4;" 
d="M349 -15q-65 0 -121 23.5t-98 64.5t-66 96.5t-24 119.5q0 63 24 118.5t66 97t98 65t121 23.5q64 0 120.5 -23.5t98 -64t65.5 -96.5t24 -120q0 -65 -24 -120.5t-65.5 -96t-98 -64t-120.5 -23.5zM348 508q-45 0 -84 -16.5t-67.5 -46t-44.5 -69.5t-16 -87t16 -87t44.5 -69.5
t67.5 -46t84 -16.5t84 16.5t67.5 46t44.5 69.5t16 87t-16 87t-44.5 69.5t-67.5 46t-84 16.5zM518 650h-72l-97 102l-99 -102h-71l119 173h101z" />
    <glyph glyph-name="otilde" unicode="&#xf5;" 
d="M349 -15q-65 0 -121 23.5t-98 64.5t-66 96.5t-24 119.5q0 63 24 118.5t66 97t98 65t121 23.5q64 0 120.5 -23.5t98 -64t65.5 -96.5t24 -120q0 -65 -24 -120.5t-65.5 -96t-98 -64t-120.5 -23.5zM348 508q-45 0 -84 -16.5t-67.5 -46t-44.5 -69.5t-16 -87t16 -87t44.5 -69.5
t67.5 -46t84 -16.5t84 16.5t67.5 46t44.5 69.5t16 87t-16 87t-44.5 69.5t-67.5 46t-84 16.5zM555 778q-4 -60 -38 -94t-94 -34q-23 0 -43 7t-38.5 15t-36.5 15t-37 7q-18 0 -27 -14t-11 -30h-86q3 58 35.5 93t95.5 35q22 0 42.5 -7t39.5 -15t36.5 -15t32.5 -7q20 0 30 13
t13 31h86z" />
    <glyph glyph-name="odieresis" unicode="&#xf6;" 
d="M349 -15q-65 0 -121 23.5t-98 64.5t-66 96.5t-24 119.5q0 63 24 118.5t66 97t98 65t121 23.5q64 0 120.5 -23.5t98 -64t65.5 -96.5t24 -120q0 -65 -24 -120.5t-65.5 -96t-98 -64t-120.5 -23.5zM348 508q-45 0 -84 -16.5t-67.5 -46t-44.5 -69.5t-16 -87t16 -87t44.5 -69.5
t67.5 -46t84 -16.5t84 16.5t67.5 46t44.5 69.5t16 87t-16 87t-44.5 69.5t-67.5 46t-84 16.5zM508 650h-90v100h90v-100zM278 650h-90v100h90v-100z" />
    <glyph glyph-name="divide" unicode="&#xf7;" horiz-adv-x="641" 
d="M591 326h-531v101h531v-101zM375 523h-103v103h103v-103zM375 129h-103v103h103v-103z" />
    <glyph glyph-name="oslash" unicode="&#xf8;" 
d="M189 131l265 360q-34 18 -60 22t-46 4q-45 0 -84.5 -18t-69 -49.5t-46 -73t-16.5 -87.5q0 -35 11 -72.5t46 -85.5zM505 451l-267 -361q41 -20 65 -24.5t45 -4.5q45 0 84.5 18t68.5 49.5t46 72.5t17 88q0 35 -12.5 77.5t-46.5 84.5zM536 602h80l-62 -84q55 -51 79 -108.5
t24 -120.5q0 -64 -24 -119.5t-65.5 -96t-98 -64t-120.5 -23.5q-37 0 -75 7t-83 33l-36 -49h-16h-43h1h-22l64 87q-54 52 -76.5 108t-22.5 117q0 63 24 118t66 96.5t98 65t121 23.5q35 0 72.5 -7t79.5 -30z" />
    <glyph glyph-name="ugrave" unicode="&#xf9;" horiz-adv-x="626" 
d="M566 1h-97v70q-16 -16 -38 -31.5t-47.5 -27.5t-53 -19t-54.5 -7q-106 0 -166 62t-60 183v348h96v-340q0 -85 38.5 -126t123.5 -41q16 0 38.5 6t45 15.5t43 22.5t34.5 28v435h97v-578zM389 650h-66l-144 193h121z" />
    <glyph glyph-name="uacute" unicode="&#xfa;" horiz-adv-x="626" 
d="M566 1h-97v70q-16 -16 -38 -31.5t-47.5 -27.5t-53 -19t-54.5 -7q-106 0 -166 62t-60 183v348h96v-340q0 -85 38.5 -126t123.5 -41q16 0 38.5 6t45 15.5t43 22.5t34.5 28v435h97v-578zM439 843l-144 -193h-66l90 193h120z" />
    <glyph glyph-name="ucircumflex" unicode="&#xfb;" horiz-adv-x="626" 
d="M566 1h-97v70q-16 -16 -38 -31.5t-47.5 -27.5t-53 -19t-54.5 -7q-106 0 -166 62t-60 183v348h96v-340q0 -85 38.5 -126t123.5 -41q16 0 38.5 6t45 15.5t43 22.5t34.5 28v435h97v-578zM478 650h-72l-97 102l-99 -102h-71l119 173h101z" />
    <glyph glyph-name="udieresis" unicode="&#xfc;" horiz-adv-x="626" 
d="M566 1h-97v70q-16 -16 -38 -31.5t-47.5 -27.5t-53 -19t-54.5 -7q-106 0 -166 62t-60 183v348h96v-340q0 -85 38.5 -126t123.5 -41q16 0 38.5 6t45 15.5t43 22.5t34.5 28v435h97v-578zM467 650h-90v100h90v-100zM237 650h-90v100h90v-100z" />
    <glyph glyph-name="yacute" unicode="&#xfd;" horiz-adv-x="557" 
d="M435 843l-144 -193h-66l90 193h120zM552 579l-258 -698q-14 -37 -33.5 -62.5t-43 -41.5t-48.5 -23t-50 -7q-5 0 -19.5 1.5t-24.5 4.5l-23 86q7 -2 21.5 -5t19.5 -3q15 0 33 2t36 10t34 24t27 45l32 88l-240 579h98l182 -465l162 465h95z" />
    <glyph glyph-name="thorn" unicode="&#xfe;" horiz-adv-x="646" 
d="M626 288q0 -60 -21 -115t-58.5 -97t-88 -66.5t-110.5 -24.5q-54 0 -97.5 16t-85.5 48l1 -300h-96v1051h95v-267q42 33 85.5 46.5t97.5 13.5q56 0 106.5 -24t88.5 -65t60.5 -97t22.5 -119zM529 282q0 50 -16 91t-44.5 70t-67 45t-83.5 16t-81.5 -11.5t-72.5 -41.5v-320
q61 -60 154 -60q48 0 87 15t66.5 43t42.5 66.5t15 86.5z" />
    <glyph glyph-name="ydieresis" unicode="&#xff;" horiz-adv-x="557" 
d="M552 579l-258 -698q-14 -37 -33.5 -62.5t-43 -41.5t-48.5 -23t-50 -7q-5 0 -19.5 1.5t-24.5 4.5l-23 86q7 -2 21.5 -5t19.5 -3q15 0 33 2t36 10t34 24t27 45l32 88l-240 579h98l182 -465l162 465h95zM462 650h-90v100h90v-100zM232 650h-90v100h90v-100z" />
    <glyph glyph-name="dotlessi" unicode="&#x131;" horiz-adv-x="233" 
d="M160 0h-97v579h97v-579z" />
    <glyph glyph-name="OE" unicode="&#x152;" horiz-adv-x="1313" 
d="M465 717q-65 0 -122 -25t-99 -68t-66.5 -100.5t-24.5 -122.5q0 -66 24.5 -123.5t66.5 -101t99 -68.5t122 -25t122.5 25t100 68.5t67 101t24.5 123.5q0 65 -24.5 122.5t-67 100.5t-100 68t-122.5 25zM1273 0h-495v140q-33 -40 -72 -69t-80.5 -48t-83 -28.5t-77.5 -9.5
q-86 0 -161.5 32.5t-131.5 89t-89 132t-33 162.5t33 162.5t89 131.5t131.5 88t161.5 32q37 0 78 -9.5t82.5 -29t80.5 -48t72 -67.5v139h495v-85h-394v-255h387v-82h-387v-289h394v-89z" />
    <glyph glyph-name="oe" unicode="&#x153;" horiz-adv-x="1190" 
d="M348 508q-45 0 -84 -16.5t-67.5 -46t-44.5 -69.5t-16 -87t16 -87t44.5 -69.5t67.5 -46t84 -16.5t84 16.5t67.5 46t45 69.5t16.5 87t-16.5 87t-45 69.5t-67.5 46t-84 16.5zM1160 290q0 -9 -0.5 -19t-1.5 -18h-520q9 -45 30 -79.5t50 -58t64 -35.5t73 -12q57 0 95.5 22
t67.5 51l64 -64q-46 -45 -100.5 -68.5t-129.5 -23.5q-81 0 -145.5 34.5t-106.5 91.5q-42 -58 -107.5 -92t-143.5 -34q-65 0 -121 23.5t-98 64.5t-66 96.5t-24 119.5q0 63 24 118.5t66 97t98 65t121 23.5q79 0 144.5 -34t107.5 -92q42 57 106.5 91.5t142.5 34.5
q62 0 118.5 -22.5t99 -62.5t67.5 -96t25 -122zM1062 329q-8 46 -29.5 80t-50.5 56.5t-63 33.5t-66 11q-35 0 -69.5 -11.5t-64 -34t-51 -56.5t-29.5 -79h423z" />
    <glyph glyph-name="Scaron" unicode="&#x160;" horiz-adv-x="642" 
d="M612 194q0 -40 -18.5 -77.5t-52.5 -67t-82 -47t-107 -17.5q-49 0 -90 5.5t-78 18t-72 33.5t-72 52l76 76q51 -45 108.5 -66t120.5 -21q29 0 57 7.5t50.5 21.5t36 35.5t13.5 50.5t-12.5 51t-38 40.5t-65 36t-93.5 36.5q-50 18 -91.5 39.5t-71.5 49.5t-47 64.5t-17 84.5
t20.5 87.5t55.5 68t82 44.5t101 16q83 0 146.5 -21t121.5 -73l-74 -75q-34 34 -86 54t-103 20q-30 0 -58.5 -7.5t-50.5 -22.5t-35 -37t-13 -50q0 -30 13.5 -53t40 -42.5t65.5 -36.5t90 -34q61 -21 104.5 -44.5t71.5 -53t41 -65.5t13 -81zM492 1044l-119 -173h-101l-119 173
h72l97 -102l98 102h72z" />
    <glyph glyph-name="scaron" unicode="&#x161;" horiz-adv-x="515" 
d="M485 148q0 -40 -19 -70.5t-51 -51.5t-73.5 -31.5t-86.5 -10.5q-57 0 -113.5 20t-101.5 57l60 61q32 -27 73 -42t83 -15q26 0 50.5 4.5t43 14t29.5 23.5t11 33q0 36 -43.5 59.5t-124.5 53.5q-34 12 -66.5 28t-58 37t-41 48.5t-15.5 62.5q0 36 16 66t45 52t68.5 34t87.5 12
q123 0 207 -78l-59 -59q-62 57 -148 57q-23 0 -44.5 -5t-38.5 -15t-27.5 -25t-10.5 -35q0 -33 38.5 -56t123.5 -52q34 -12 67.5 -27.5t59.5 -37t42.5 -49t16.5 -63.5zM425 823l-119 -173h-101l-119 173h72l97 -102l98 102h72z" />
    <glyph glyph-name="Ydieresis" unicode="&#x178;" horiz-adv-x="753" 
d="M748 799l-322 -467v-333h-105v334l-306 466h122l237 -381l254 381h120zM564 871h-90v100h90v-100zM334 871h-90v100h90v-100z" />
    <glyph glyph-name="Zcaron" unicode="&#x17d;" horiz-adv-x="704" 
d="M674 800l-457 -700h454v-100h-631l465 708h-441v92h610zM530 1044l-119 -173h-101l-119 173h72l97 -102l98 102h72z" />
    <glyph glyph-name="zcaron" unicode="&#x17e;" horiz-adv-x="554" 
d="M539 579l-354 -494l343 1v-86h-508l352 494h-326v85h493zM468 823l-119 -173h-101l-119 173h72l97 -102l98 102h72z" />
    <glyph glyph-name="florin" unicode="&#x192;" horiz-adv-x="475" 
d="M371 594h-100l-129 -589q-36 -164 -216 -164q-20 0 -39.5 2t-36.5 5l18 84q12 -2 24 -3t26 -1q31 0 54 5.5t38.5 18t26 33t17.5 50.5l122 559h-77l20 86h78l16 75q24 108 74.5 158t146.5 50q20 0 39.5 -2t36.5 -5l-20 -84q-12 2 -24 3t-26 1q-31 0 -52.5 -5.5t-36 -18
t-24 -33t-16.5 -50.5l-20 -89h97z" />
    <glyph glyph-name="circumflex" unicode="&#x2c6;" horiz-adv-x="580" 
d="M454 650h-72l-97 102l-99 -102h-71l119 173h101z" />
    <glyph glyph-name="tilde" unicode="&#x2dc;" horiz-adv-x="626" 
d="M532 778q-4 -60 -38 -94t-94 -34q-23 0 -43 7t-38.5 15t-36.5 15t-37 7q-18 0 -27 -14t-11 -30h-86q3 58 35.5 93t95.5 35q22 0 42.5 -7t39.5 -15t36.5 -15t32.5 -7q20 0 30 13t13 31h86z" />
    <glyph glyph-name="endash" unicode="&#x2013;" horiz-adv-x="587" 
d="M557 280h-527v94h527v-94z" />
    <glyph glyph-name="emdash" unicode="&#x2014;" horiz-adv-x="919" 
d="M889 280h-859v94h859v-94z" />
    <glyph glyph-name="quoteleft" unicode="&#x2018;" horiz-adv-x="144" 
d="M25 744q0 36 18 61t56 25q16 0 23 -4v-8q-20 -4 -31 -20t-11 -36q0 -9 3 -18h41v-99h-99v99z" />
    <glyph glyph-name="quoteright" unicode="&#x2019;" horiz-adv-x="144" 
d="M124 731q0 -36 -17.5 -61t-55.5 -25q-17 0 -24 4v8q20 4 31 20t11 36q0 9 -3 18h-41v99h99v-99z" />
    <glyph glyph-name="quotesinglbase" unicode="&#x201a;" horiz-adv-x="149" 
d="M124 0q0 -36 -17.5 -61t-55.5 -25q-17 0 -24 4v8q20 4 31 20t11 36q0 9 -3 18h-41v99h99v-99z" />
    <glyph glyph-name="quotedblleft" unicode="&#x201c;" horiz-adv-x="295" 
d="M171 744q0 36 18 61t56 25q16 0 23 -4v-8q-20 -4 -31 -20t-11 -36q0 -9 3 -18h41v-99h-99v99zM30 744q0 36 18 61t56 25q16 0 23 -4v-8q-20 -4 -31 -20t-11 -36q0 -9 3 -18h41v-99h-99v99z" />
    <glyph glyph-name="quotedblright" unicode="&#x201d;" horiz-adv-x="295" 
d="M129 731q0 -36 -17.5 -61t-55.5 -25q-17 0 -24 4v8q20 4 31 20t11 36q0 9 -3 18h-41v99h99v-99zM270 731q0 -36 -17.5 -61t-55.5 -25q-17 0 -24 4v8q20 4 31 20t11 36q0 9 -3 18h-41v99h99v-99z" />
    <glyph glyph-name="quotedblbase" unicode="&#x201e;" horiz-adv-x="291" 
d="M124 0q0 -36 -17.5 -61t-55.5 -25q-17 0 -24 4v8q20 4 31 20t11 36q0 9 -3 18h-41v99h99v-99zM266 0q0 -36 -18 -61t-56 -25q-16 0 -23 4v8q20 4 30.5 20t10.5 36q0 5 -0.5 9t-2.5 9h-41v99h99h1v-99z" />
    <glyph glyph-name="dagger" unicode="&#x2020;" horiz-adv-x="403" 
d="M202 161q0 -51 21 -70.5t63 -19.5q48 0 92 23v-84q-49 -25 -114 -25q-82 0 -120.5 42t-38.5 144v321h-90v87h90v154h98v-154h174v-87h-174z" />
    <glyph glyph-name="daggerdbl" unicode="&#x2021;" horiz-adv-x="908" 
d="M454 -14q-89 0 -167 33.5t-136.5 92t-92 136.5t-33.5 167t33.5 167t92 136.5t136.5 92t167 33.5t167 -33.5t136.5 -92t92 -136.5t33.5 -167t-33.5 -167t-92 -136.5t-136.5 -92t-167 -33.5zM454 785q-77 0 -144 -29t-117.5 -79.5t-79.5 -118t-29 -143.5q0 -77 29 -144
t79.5 -117.5t117.5 -79.5t144 -29q76 0 143.5 29t118 79.5t79.5 117.5t29 144q0 76 -29 143.5t-79.5 118t-118 79.5t-143.5 29zM491 329h-106v-179h-79v526h185q36 0 67.5 -13.5t55.5 -37.5t37.5 -55.5t13.5 -67.5t-13.5 -67.5t-37.5 -55t-55.5 -37t-67.5 -13.5zM471 622
h-86v-235h86q24 0 45.5 9.5t37 25t25 37t9.5 45.5t-9.5 45.5t-25 37.5t-37 25.5t-45.5 9.5z" />
    <glyph glyph-name="bullet" unicode="&#x2022;" horiz-adv-x="281" 
d="M201 276h-201v201h201v-201z" />
    <glyph glyph-name="ellipsis" unicode="&#x2026;" horiz-adv-x="563" 
d="M161 0h-101v101h101v-101zM332 0h-101v101h101v-101zM503 0h-101v101h101v-101z" />
    <glyph glyph-name="perthousand" unicode="&#x2030;" horiz-adv-x="1244" 
d="M415 629q0 -39 -15 -73.5t-40.5 -60t-59.5 -40t-73 -14.5t-73 14.5t-59.5 40t-40 60t-14.5 73.5t14.5 73t40 59.5t59.5 40t73 14.5t73 -14.5t59.5 -40t40.5 -59.5t15 -73zM707 799l-536 -845h-85l536 845h85zM784 171q0 -39 -15 -73t-40.5 -59.5t-59.5 -40t-73 -14.5
t-73 14.5t-59.5 40t-40 59.5t-14.5 73t14.5 73t40 59.5t59.5 40t73 14.5t73 -14.5t59.5 -40t40.5 -59.5t15 -73zM336 629q0 22 -8.5 41.5t-23.5 34.5t-35 23.5t-42 8.5t-41.5 -8.5t-34.5 -23.5t-23.5 -34.5t-8.5 -41.5q0 -23 8.5 -42.5t23.5 -34t34.5 -23t41.5 -8.5t42 8.5
t35 23t23.5 34t8.5 42.5zM705 171q0 22 -8.5 42t-23.5 34.5t-35 23t-42 8.5t-41.5 -8.5t-34.5 -23t-23.5 -34.5t-8.5 -42q0 -23 8.5 -42.5t23.5 -34t34.5 -23t41.5 -8.5t42 8.5t35 23t23.5 34t8.5 42.5zM1204 171q0 -39 -15 -73t-40.5 -59.5t-59.5 -40t-73 -14.5t-73 14.5
t-59.5 40t-40 59.5t-14.5 73t14.5 73t40 59.5t59.5 40t73 14.5t73 -14.5t59.5 -40t40.5 -59.5t15 -73zM1125 171q0 22 -8.5 42t-23.5 34.5t-35 23t-42 8.5t-41.5 -8.5t-34.5 -23t-23.5 -34.5t-8.5 -42q0 -23 8.5 -42.5t23.5 -34t34.5 -23t41.5 -8.5t42 8.5t35 23t23.5 34
t8.5 42.5z" />
    <glyph glyph-name="guilsinglleft" unicode="&#x2039;" horiz-adv-x="319" 
d="M299 545l-180 -272l179 -273h-98l-180 273l180 272h99z" />
    <glyph glyph-name="guilsinglright" unicode="&#x203a;" horiz-adv-x="317" 
d="M297 273l-178 -273h-99l180 273l-180 272h99z" />
    <glyph glyph-name="Euro" unicode="&#x20ac;" horiz-adv-x="804" 
d="M488 276h-237q18 -43 48 -78t70 -60t88.5 -38.5t102.5 -13.5q17 0 37 3t40 9t39.5 14t35.5 18l51 -89q-42 -26 -95.5 -40.5t-107.5 -14.5q-75 0 -142.5 22t-122.5 61t-94.5 92t-59.5 115h-103l46 79h39q-1 11 -1.5 21.5t-0.5 21.5q0 10 0.5 20t1.5 20h-93l46 79h62
q19 66 58 120.5t94 94t123.5 61.5t146.5 22q24 0 52.5 -4.5t56.5 -12t53 -18t42 -21.5l-53 -90q-30 20 -72.5 33t-78.5 13q-56 0 -105 -14t-89.5 -40t-70.5 -62.5t-48 -81.5h380l-47 -79h-352q-1 -9 -1.5 -18t-0.5 -19q0 -24 3 -46h305z" />
    <glyph glyph-name="trademark" unicode="&#x2122;" horiz-adv-x="834" 
d="M726 400v309l-139 -242l-135 245v-312h-57v400h75l118 -215l123 215h73v-400h-58zM204 749v-349h-61v349h-113v51h287v-51h-113z" />
    </font>
</defs>
</svg>
